<svg width="180" height="85" viewBox="0 0 180 85" fill="none" xmlns="http://www.w3.org/2000/svg">
<g filter="url(#filter0_d_3_2)">
<mask id="path-1-outside-1_3_2" maskUnits="userSpaceOnUse" x="0" y="0" width="179" height="84" fill="black">
<rect fill="white" width="179" height="84"/>
<path d="M25.7752 2.21344C25.8116 2.33176 26.039 2.83234 26.2755 3.33292C26.7667 4.3523 27.3124 4.96211 28.2039 5.4991L28.7223 5.80855L28.3676 6.15441C27.9037 6.60949 27.7309 6.98266 27.7309 7.55605C27.7309 8.31148 28.213 9.02141 29.0043 9.43098C29.3045 9.5857 29.3045 9.64031 29.0498 10.3866L28.9406 10.7052L24.338 10.7325L19.7264 10.7507L19.5808 10.9691C19.408 11.2331 19.4262 11.2695 20.1994 12.4072C21.1817 13.8452 22.1368 14.2002 25.0384 14.2093H26.4028L26.1663 14.455C26.039 14.6007 25.8844 14.8009 25.8298 14.9101C25.6752 15.2196 25.7115 15.7748 25.9117 16.1024C26.1573 16.512 27.0396 17.0581 27.8491 17.3038L28.5313 17.5132L28.3312 17.8408C28.1402 18.1685 28.1402 18.1867 28.1402 25.2677V32.3669L28.3403 32.6946L28.5313 33.0313L27.9492 33.2771C27.6308 33.4136 27.1396 33.6866 26.8667 33.8778C26.5848 34.0689 26.3301 34.2327 26.2937 34.2327C26.2573 34.2327 26.0117 33.9142 25.7388 33.5228C24.5473 31.839 23.7195 30.7923 23.3921 30.5648C22.7371 30.1097 21.7457 30.2917 21.0635 30.9926C20.6451 31.4385 20.4268 31.8936 20.3813 32.4761C20.2903 33.5683 20.7178 33.9233 23.8196 35.3158C24.3926 35.5798 24.8929 35.8164 24.9293 35.8528C24.9657 35.8892 24.902 36.1623 24.8019 36.4626C24.4381 37.5093 24.6018 39.1112 25.1567 39.9576C25.2931 40.1669 25.2931 40.1942 25.1385 40.2853C24.7928 40.4855 23.2192 41.6778 23.0282 41.8871C22.6189 42.3331 22.5188 43.0157 22.7917 43.58C22.9646 43.9441 23.7377 44.6176 24.7201 45.2638C25.284 45.6279 25.3477 45.7007 25.1476 45.7007C24.7747 45.7007 24.4017 45.9282 24.2744 46.2377C24.2107 46.4106 24.1743 46.7929 24.1925 47.2388C24.238 48.1399 24.429 48.3947 25.1112 48.4858C25.3477 48.5222 25.5478 48.5586 25.5478 48.5677C25.5478 48.5859 25.4841 48.9317 25.4023 49.3504C24.8474 52.2993 23.5012 54.4291 21.0453 56.2676C20.3904 56.75 19.8901 57.023 18.5894 57.5782C7.61956 62.2928 3.43539 65.351 2.26201 69.5468C1.98003 70.5388 1.91636 72.0497 2.11647 72.9507C3.1807 77.7109 10.0118 80.7963 21.5456 81.6974C24.1106 81.8976 29.3045 81.9704 32.2789 81.843C34.7075 81.7338 38.9735 81.4425 39.6739 81.3242C39.9741 81.2787 40.0651 81.306 40.2652 81.4971C40.9656 82.1615 42.0571 82.1706 42.7484 81.5062C42.9758 81.2878 42.994 81.2878 43.3123 81.4243C43.9309 81.6791 44.8314 81.579 45.2407 81.1968C45.3953 81.0511 46.2958 80.8782 49.9706 80.2775C54.3913 79.5585 54.5368 79.5494 55.1281 79.6586C55.6102 79.7496 55.8285 79.7496 56.1105 79.6586C56.5289 79.5312 57.0564 79.1034 57.2474 78.7393C57.3293 78.5846 57.5294 78.439 57.8114 78.3298C58.0479 78.2388 58.5209 78.0294 58.8574 77.8656C59.5578 77.5197 59.667 77.5015 59.9763 77.7018C60.7221 78.1932 61.0587 76.7734 60.3674 76.0271C60.1036 75.754 59.8853 75.7722 59.6124 76.0908C59.385 76.3456 59.3668 76.3456 58.1025 76.4002C56.9655 76.4457 56.7836 76.4275 56.538 76.2819C55.8376 75.8723 55.0189 75.9816 54.3549 76.5459L53.9729 76.8826L45.2953 78.2843L44.9042 78.1022C44.1947 77.7837 43.3578 77.9202 42.8121 78.439C42.6301 78.6119 42.5301 78.6483 42.4482 78.5846C42.3846 78.53 42.1481 78.439 41.9298 78.3753C41.2839 78.2024 40.7109 78.3935 40.1651 78.9487C39.6557 79.4675 39.7922 79.4402 36.4176 79.6859C26.4028 80.414 17.6616 79.8679 11.7219 78.1386C7.89244 77.0282 5.2546 75.3536 4.30861 73.4422C4.00844 72.8233 3.96296 72.6413 3.91748 71.8859C3.73556 68.3727 6.56442 65.4238 13.3137 62.0926C15.3421 61.0823 16.3608 60.6181 16.3608 60.6818C16.3608 60.7092 16.279 60.8912 16.1698 61.0914C15.8878 61.6466 15.6332 62.7661 15.6332 63.4396C15.6423 66.2338 17.6161 68.6821 21.3 70.466L22.4643 71.0212L21.3636 71.8404C20.0902 72.7869 19.881 73.0509 19.9356 73.6334C20.0174 74.3706 20.3904 74.68 21.682 75.0532C23.6377 75.6175 26.1573 75.9088 29.8229 75.9816C33.9798 76.0635 36.9451 75.845 39.1737 75.2807C41.0656 74.7984 41.7024 74.316 41.6205 73.4331C41.575 72.8961 41.4931 72.8051 40.1651 71.8039L39.0918 71.003L39.6648 70.7573C41.3749 70.02 42.7302 69.1281 43.8308 68.0086C45.3044 66.5068 45.9229 65.1507 45.9229 63.4123C45.9229 62.1381 45.4772 60.9549 44.5494 59.7262C43.9036 58.8706 43.3487 58.3701 41.2839 56.8319C38.9463 55.0935 37.9184 53.9558 37.0998 52.2356C36.5995 51.1707 36.5995 51.1889 37.2362 50.8158C38.0912 50.3243 44.2765 46.5835 45.7865 45.6461C48.7245 43.8349 51.144 41.9417 53.2452 39.8393C55.2736 37.8005 56.4197 36.2897 57.4203 34.3328C58.3845 32.4488 58.7847 30.9471 58.7847 29.2724C58.7847 27.9982 58.63 27.3155 58.148 26.3326C57.5294 25.113 56.1013 24.039 54.5186 23.6203C53.6818 23.4019 52.0354 23.3564 51.0622 23.5202C49.7068 23.7568 48.206 24.312 46.8962 25.0492C46.5505 25.2495 46.1503 25.4042 46.0048 25.4042C45.3862 25.4042 44.8223 25.8411 44.6949 26.4145C44.6313 26.6784 44.6131 26.6875 44.2765 26.6329C43.8217 26.551 43.9127 26.4873 41.3931 28.5807C39.3556 30.2644 39.3192 30.2917 38.828 30.3373C38.3641 30.3828 38.3095 30.4192 37.782 30.9653C37.4818 31.2838 36.8269 32.1212 36.3357 32.822C35.8445 33.5228 35.4079 34.1326 35.3624 34.1781C35.326 34.2236 35.0532 34.0962 34.753 33.896C34.4619 33.6957 33.9525 33.4227 33.6251 33.2771L33.0429 33.0222L33.4614 32.2031V18.3323L33.2521 17.9136L33.0338 17.495L33.4432 17.3948C34.0344 17.2492 34.9167 16.8305 35.2715 16.5211C35.6717 16.1934 35.9355 15.6018 35.8627 15.2287C35.8263 15.0739 35.6717 14.7827 35.4989 14.5916L35.1987 14.2366L36.9451 14.182C38.7825 14.1365 39.2464 14.0546 40.1015 13.6177C40.5744 13.372 40.911 13.0261 41.484 12.207C42.1117 11.3059 42.139 11.2331 41.9752 10.9691L41.8297 10.7507L37.218 10.7325L32.6154 10.7052L32.4517 10.2501C32.2334 9.61301 32.2334 9.59481 32.6336 9.39457C33.4614 8.9668 34.0071 7.97472 33.8343 7.20109C33.7342 6.76422 33.3613 6.18172 33.0338 5.96328L32.8064 5.81765L33.3067 5.5264C33.898 5.19875 34.5438 4.60714 34.9076 4.07015C35.1441 3.72429 35.8263 2.25894 35.8263 2.08601C35.8263 2.04961 33.5523 2.0132 30.7689 2.0132H25.7206L25.7752 2.21344ZM27.3579 3.26922C27.9492 4.07016 28.5677 4.65265 29.2408 5.03492C29.8684 5.38988 29.7229 5.48089 28.977 5.19875C28.3858 4.98031 27.649 4.3523 27.3215 3.7971C27.1123 3.43304 26.794 2.6503 26.8576 2.6503C26.8758 2.6503 27.1032 2.93246 27.3579 3.26922ZM29.168 6.35465C28.8588 6.6732 28.7132 7.05547 28.7132 7.52875C28.7132 8.02023 28.9043 8.3752 29.3863 8.79387C29.7047 9.07601 29.732 9.12152 29.5501 9.06691C28.8861 8.87578 28.4222 8.35699 28.3221 7.70168C28.2493 7.2375 28.5586 6.60039 28.9952 6.31824C29.4045 6.04519 29.45 6.05429 29.168 6.35465ZM32.5518 6.33643C33.334 6.73691 33.2431 7.92922 32.4335 7.92922C31.6785 7.92922 31.1692 6.92805 31.6603 6.40925C31.8877 6.16351 32.1788 6.1453 32.5518 6.33643ZM29.8502 10.3138C29.8957 10.6597 29.8866 10.7507 29.7775 10.7507C29.7138 10.7507 29.6319 10.7143 29.6046 10.6779C29.5592 10.6051 29.732 9.80413 29.7775 9.85875C29.7866 9.87695 29.8229 10.0772 29.8502 10.3138ZM22.1368 12.8896C22.8918 13.2263 23.7468 13.2809 29.732 13.3537C37.3817 13.4448 38.4824 13.5085 33.6524 13.5904C28.3858 13.6905 23.7923 13.6814 23.1556 13.5722C22.0277 13.3902 21.0544 12.7166 20.5086 11.7428C20.3631 11.4879 20.454 11.5425 20.9816 12.0522C21.3727 12.4254 21.8185 12.753 22.1368 12.8896ZM33.9162 14.4823C34.4255 14.6189 34.6166 14.8009 34.4983 15.0011C34.3346 15.2742 33.7524 15.4107 32.6427 15.4562C31.533 15.5108 30.5597 15.347 30.2868 15.0739C30.0776 14.8737 30.3869 14.6007 30.9509 14.4914C31.2055 14.4368 31.4966 14.3731 31.5967 14.3549C31.8877 14.2821 33.5614 14.3731 33.9162 14.4823ZM26.8122 14.9192C26.5302 15.4107 26.6212 15.6837 27.2124 16.066C27.4671 16.2389 28.0219 16.512 28.4404 16.6667C28.8497 16.8305 29.1771 16.9853 29.1589 17.0035C29.1317 17.0217 28.8406 16.9944 28.504 16.9398C26.8031 16.6667 25.8571 15.6109 26.6302 14.8373C26.9941 14.4823 27.0487 14.5005 26.8122 14.9192ZM31.6513 18.2777C31.8514 18.4597 32.1061 18.7783 32.2152 18.9785C32.4153 19.3517 32.4153 19.3608 32.4153 25.2677V31.1837L32.1515 31.6661C31.915 32.0848 31.624 32.3851 31.2055 32.6308C31.1328 32.6764 31.1783 32.5307 31.2965 32.3123L31.5057 31.9118L31.533 25.4315C31.5603 18.8147 31.5603 18.8602 31.2328 18.0957C31.1328 17.859 31.2419 17.9045 31.6513 18.2777ZM29.3136 18.3505C28.9406 18.9148 28.9224 19.3335 28.977 25.386C29.0225 30.7377 29.0407 31.2201 29.1953 31.6115C29.4227 32.1849 29.3409 32.1667 29.0407 31.566C28.8042 31.1109 28.7951 31.0017 28.7132 28.9993C28.6678 27.8434 28.6496 25.2677 28.6587 23.2653C28.6859 20.1526 28.7132 19.561 28.8497 19.1696C29.0043 18.7146 29.3227 18.123 29.4136 18.123C29.4409 18.123 29.3954 18.2231 29.3136 18.3505ZM53.9911 24.0936C56.065 24.5214 57.3475 25.5589 57.8933 27.2518C58.5209 29.2178 58.148 31.7844 56.9018 34.0689C56.2924 35.1884 56.1468 35.3067 56.6016 34.3237C57.9933 31.3566 58.2116 28.6808 57.2474 26.7057C56.538 25.2677 55.0189 24.3848 52.7358 24.0936L51.7898 23.9753L52.5448 23.9571C52.9632 23.9571 53.609 24.0117 53.9911 24.0936ZM53.9092 25.4497C54.5914 25.6135 55.4373 26.0231 55.874 26.4145C56.5652 27.0152 57.011 28.4623 56.8927 29.7092C56.6471 32.3214 55.0553 35.2248 52.2901 38.0918C50.5346 39.9121 48.5608 41.5322 46.1503 43.1522C44.604 44.1898 36.3721 49.1593 36.1993 49.1593C36.1447 49.1593 36.0992 49.0774 36.0992 48.9863C36.0992 48.8862 36.081 48.7497 36.0446 48.6769C36.0082 48.5768 36.0992 48.5313 36.4358 48.4949C36.7723 48.4585 36.9269 48.3856 37.1271 48.1581C37.3817 47.8669 37.3908 47.8395 37.3545 47.0113C37.3181 46.0374 37.1907 45.8099 36.5904 45.7098L36.2538 45.6552L36.8815 45.2365C37.8638 44.5812 38.6552 43.8895 38.7916 43.5527C38.9554 43.1614 38.9554 42.5697 38.7825 42.2512C38.6097 41.9144 37.9184 41.2955 37.027 40.6857L36.2993 40.1851L36.5267 39.7483C37.0361 38.7471 37.118 37.4001 36.7359 36.3898C36.5631 35.9438 36.5631 35.9074 36.7086 35.7982C36.7905 35.7436 36.8906 35.689 36.936 35.689C36.9724 35.689 37.7547 35.3249 38.6734 34.888C40.5744 33.9688 41.0565 33.6138 41.1657 33.0222C41.2385 32.6582 41.3567 32.5398 43.2305 30.9835C45.9866 28.6808 45.741 28.9447 45.741 28.4077C45.741 27.9618 45.7501 27.9526 46.0139 27.9526C46.4141 27.9526 46.787 27.7342 47.0053 27.3701C47.3419 26.8332 49.5977 25.7774 51.1076 25.4588C51.8899 25.2859 53.1997 25.2859 53.9092 25.4497ZM45.8138 26.733C45.8683 26.8423 46.0502 26.9879 46.214 27.0698L46.5141 27.2245H46.2595C46.1139 27.2245 45.932 27.1881 45.841 27.1335C45.6045 27.0061 45.4317 26.551 45.5136 26.2507L45.741 26.1551L45.65 26.2689C45.6773 26.4145 45.7592 26.6238 45.8138 26.733ZM38.8917 31.0836C38.7189 31.5296 39.3283 32.4033 40.0378 32.731C40.3925 32.9039 40.438 32.9403 40.2834 32.9858C39.8013 33.1132 39.0645 32.6673 38.7916 32.103C38.6188 31.7389 38.6006 31.2201 38.7552 31.0654C38.9008 30.9198 38.9463 30.9289 38.8917 31.0836ZM23.1919 31.3566C23.2738 31.4112 23.8923 32.1303 24.5745 32.9585C25.4569 34.0416 25.7752 34.4876 25.7115 34.5695C25.6479 34.6514 25.3295 34.4421 24.4745 33.7503C22.819 32.4033 22.3642 31.9482 22.3642 31.6024C22.3642 31.1655 22.7553 31.0472 23.1919 31.3566ZM37.882 32.1121C37.4818 32.9039 36.5631 34.1053 36.0537 34.5058C35.8263 34.6787 36.3266 33.7776 36.8724 33.004C37.3363 32.3487 38.0185 31.566 38.073 31.6297C38.0912 31.6479 38.0094 31.8663 37.882 32.1121ZM21.8366 33.541C22.9373 33.9506 25.1749 35.1793 25.0566 35.3067C24.9293 35.4341 22.4006 34.2236 21.5911 33.6411C21.0544 33.268 21.0817 33.2498 21.8366 33.541ZM27.8946 34.3237C26.2027 35.4341 25.4387 36.854 25.5751 38.6743L25.6206 39.3751L25.4932 38.9655C25.1749 37.9735 25.2658 36.8813 25.7388 35.9438C26.0572 35.3249 26.8758 34.5786 27.6399 34.2054C28.595 33.7412 28.7132 33.7867 27.8946 34.3237ZM33.5068 34.2418C34.1981 34.4967 35.0895 35.3431 35.4625 36.0712C35.8263 36.8176 35.8445 37.4638 35.4989 37.8187C35.2988 38.0099 35.1714 38.0554 34.7894 38.0554C33.4886 38.0554 31.8241 36.3989 31.8241 35.0974C31.8241 34.1417 32.4244 33.8323 33.5068 34.2418ZM30.5051 34.4512C31.0782 34.6878 31.1874 35.334 30.7416 35.7891C30.2868 36.2351 29.641 36.1258 29.4045 35.5433C29.2954 35.2794 29.2954 35.1884 29.3954 34.9335C29.541 34.6059 29.6956 34.4512 29.9594 34.3874C30.0594 34.3692 30.1504 34.3419 30.1686 34.3328C30.1777 34.3328 30.3323 34.3783 30.5051 34.4512ZM25.3568 41.3228C24.3471 42.0237 23.9105 42.506 23.9105 42.9156C23.9105 43.1614 23.9924 43.2979 24.3926 43.6619C24.6473 43.9077 25.2022 44.3537 25.6206 44.6449C26.0299 44.9271 26.3665 45.1819 26.3665 45.2092C26.3665 45.2911 25.6934 44.9635 24.9839 44.5448C24.5836 44.299 24.1016 43.935 23.9105 43.7165C23.3375 43.0703 23.3557 42.5971 24.0015 41.969C24.3653 41.6141 25.7934 40.7858 26.039 40.7858C26.0845 40.7858 25.7752 41.0316 25.3568 41.3228ZM36.4449 41.341C37.0816 41.7688 37.6455 42.3422 37.6455 42.5698C37.6455 42.8155 37.4272 43.0066 36.9633 43.1614C36.4358 43.3434 33.3067 43.3252 32.2789 43.134C31.251 42.9338 30.9509 42.8246 31.0873 42.6608C31.2146 42.5151 31.8423 42.3786 33.2794 42.1966C34.5802 42.0237 35.3988 41.7415 35.7354 41.341C35.8627 41.1954 35.9719 41.068 35.9901 41.068C36.0082 41.0589 36.2084 41.1863 36.4449 41.341ZM25.848 46.2195C25.7843 46.2377 25.6479 46.4015 25.5387 46.5744C25.3113 46.9476 25.3477 47.3663 25.6479 47.7394C25.8662 48.0125 25.7115 48.0671 25.4023 47.8122C24.993 47.4846 24.8838 46.9112 25.1476 46.5289C25.3022 46.3196 25.8298 46.0374 25.9117 46.1285C25.9389 46.1558 25.9117 46.2013 25.848 46.2195ZM35.6353 46.4652C35.8627 46.5198 36.0537 46.6017 36.0537 46.6563C36.0537 46.8839 35.3078 47.0113 33.8707 47.0113C31.9696 47.0204 30.9781 46.7929 31.7058 46.5107C32.388 46.2559 34.6802 46.2286 35.6353 46.4652ZM27.4125 48.8589C27.0396 51.0342 26.0572 53.5007 25.0657 54.7294C24.6018 55.2937 24.7019 55.3119 25.3386 54.7567C26.5211 53.7374 27.9947 51.4529 28.786 49.405L29.1226 48.5222H32.0242C33.616 48.5222 34.9167 48.5404 34.9167 48.5586C34.9167 48.7042 35.226 50.2151 35.3351 50.5973L35.4716 51.0888L34.8894 51.6167C34.3346 52.1355 33.5705 53.1185 33.6615 53.2095C33.716 53.2732 34.7985 52.363 35.2078 51.9079C35.5716 51.4984 35.6444 51.462 35.6444 51.6349C35.6444 51.8442 36.5267 53.5826 36.9269 54.1833C37.6 55.1936 38.8553 56.3768 40.7109 57.7785C42.7029 59.2711 43.4033 59.9173 43.9582 60.7911C44.704 61.9561 44.986 63.2303 44.7404 64.3862C44.3584 66.252 42.5665 68.136 39.965 69.4102C37.3908 70.6663 34.2891 71.3034 30.778 71.3034C26.4574 71.3034 22.7371 70.3204 19.9083 68.4273C19.0715 67.8721 17.8708 66.6707 17.4706 65.9881C16.2517 63.922 16.561 61.7831 18.3529 59.8718C18.7895 59.4167 19.6991 58.6522 20.7997 57.824C23.4194 55.8671 24.4563 54.7567 25.3568 52.9364C25.8844 51.8715 26.2027 50.8795 26.4756 49.5051L26.6666 48.5222H27.4671L27.4125 48.8589ZM6.00957 66.1519C4.65426 67.4807 3.91748 68.7094 3.52635 70.2749C3.27166 71.267 3.31714 72.5867 3.62641 73.4149C3.89929 74.1249 4.50872 74.9804 5.09996 75.4901C7.70143 77.6745 12.1858 79.1944 18.6348 80.0682C20.072 80.2593 20.1357 80.2775 19.317 80.232C14.5052 79.9772 9.45696 78.6847 6.52804 76.9554C4.92714 76.0089 4.01754 75.1078 3.45358 73.9337C2.2802 71.4308 3.47178 67.9904 6.30973 65.715C6.6099 65.4693 6.86459 65.2781 6.88278 65.269C6.90098 65.269 6.50985 65.6695 6.00957 66.1519ZM24.1106 71.5309C24.238 71.5855 24.1106 71.7129 23.5376 72.1407C22.3096 73.0418 22.0913 73.4422 22.6826 73.6971C23.1192 73.8791 24.8383 74.1613 26.5939 74.3342C28.3676 74.5071 33.9434 74.6163 33.7342 74.4707C33.6615 74.4161 33.2885 74.3706 32.9065 74.3706C31.2328 74.3706 26.5302 73.7699 26.1391 73.515C25.7115 73.2329 25.7388 72.5958 26.1845 72.259C26.4028 72.1043 26.4756 72.0952 27.3034 72.2044L28.1857 72.3136L27.9765 72.5321L27.7763 72.7505L28.031 72.969C28.4585 73.333 29.1135 73.4786 30.5961 73.5241C32.6063 73.597 34.0071 73.2875 34.0799 72.7596C34.0981 72.6413 34.0253 72.5139 33.898 72.4229C33.7888 72.3409 33.7433 72.2772 33.7979 72.2772C34.089 72.2772 36.1629 71.8768 36.8997 71.6856C37.3726 71.5582 37.7911 71.4581 37.8365 71.4581C37.9821 71.4581 37.9275 71.6128 37.7638 71.6674C37.6728 71.6947 36.9087 71.9678 36.0537 72.2681C34.5438 72.8051 34.5256 72.8233 35.0986 72.7687C35.8536 72.705 38.5097 72.3774 38.7643 72.3227C38.9099 72.2863 39.1918 72.4411 39.7649 72.8688C40.2015 73.1965 40.5563 73.5059 40.5563 73.5515C40.5563 73.8154 38.637 74.3615 36.8724 74.5981C33.8252 75.0168 28.4676 75.0077 25.093 74.589C23.1101 74.3433 21.0453 73.8245 21.0453 73.5697C21.0453 73.4149 23.6377 71.4581 23.8196 71.4672C23.8923 71.4672 24.0288 71.4945 24.1106 71.5309ZM60.1855 76.3001C60.2491 76.3638 60.2946 76.5004 60.2946 76.6187C60.2946 76.919 59.9581 76.9008 59.8762 76.6096C59.7852 76.2455 59.9672 76.0817 60.1855 76.3001ZM56.4015 76.8917C56.8017 77.2558 56.829 77.9384 56.4379 78.1113C56.0104 78.3116 55.3828 77.7382 55.3828 77.1557C55.3828 76.6915 56.0013 76.5277 56.4015 76.8917ZM59.2031 76.8007C59.3759 76.9554 58.3572 77.1466 57.8205 77.0556C57.393 76.9827 57.4658 76.8371 57.9933 76.737C58.3208 76.6733 59.103 76.7097 59.2031 76.8007ZM52.7722 77.9657C51.1895 78.3662 46.7779 79.0124 46.4414 78.8941C46.2777 78.8395 47.8422 78.4936 49.6159 78.1932C51.3987 77.8838 52.3993 77.7655 53.1088 77.7564H53.609L52.7722 77.9657ZM44.704 78.7757C45.0952 79.1671 45.1406 79.6586 44.795 79.877C44.604 80.0045 44.5403 80.0045 44.2583 79.8861C43.7126 79.6586 43.4852 78.9942 43.8308 78.6483C44.0946 78.3844 44.3493 78.4208 44.704 78.7757ZM42.2026 79.2763C42.3936 79.4675 42.4664 79.6313 42.4664 79.8679C42.4664 80.4868 41.9298 80.6689 41.4659 80.2047C41.1202 79.8679 41.0383 79.5312 41.2294 79.2399C41.4386 78.9214 41.857 78.9305 42.2026 79.2763Z"/>
<path d="M33.6111 51.5891C33.4205 51.7372 33.1028 52.0149 32.9213 52.2093C32.531 52.6259 31.7414 53.8293 31.8049 53.9034C31.8866 53.9774 33.1119 52.6999 33.5203 52.1075C34.1556 51.2003 34.1556 51.1725 33.6111 51.5891Z"/>
<path d="M31.1752 52.7529C30.5706 53.3931 29.8543 54.5158 29.9752 54.6364C30.0868 54.7477 31.2775 53.3189 31.7427 52.5024C31.8822 52.2611 31.9566 52.0663 31.9101 52.0663C31.8543 52.0663 31.5287 52.3725 31.1752 52.7529Z"/>
<path d="M29.5181 53.4217C29.0314 53.934 28.1422 55.3913 28.2545 55.4973C28.3106 55.5591 28.9097 54.8967 29.3309 54.3049C29.6772 53.8192 30.1358 52.9801 30.0797 52.9271C30.0516 52.9006 29.8082 53.1303 29.5181 53.4217Z"/>
<path d="M27.8792 54.1258C27.2492 54.8839 26.5111 56.3288 26.6731 56.4805C26.7001 56.5072 26.8891 56.2932 27.0962 56.0078C27.4922 55.4548 28.3202 53.8671 28.2392 53.7869C28.2212 53.7601 28.0502 53.9117 27.8792 54.1258Z"/>
<path d="M26.1807 55.1399C25.6394 55.8446 24.9177 57.4323 25.0792 57.584C25.1456 57.6464 25.7629 56.6741 26.0857 55.9962C26.3611 55.4342 26.589 54.7652 26.513 54.7652C26.494 54.7652 26.3421 54.9347 26.1807 55.1399Z"/>
<path d="M24.6217 56.1381C24.0872 56.9139 23.5139 58.4008 23.5916 58.7979C23.6402 58.9919 24.4856 57.3387 24.6897 56.6553C24.8743 56.0458 24.8452 55.8149 24.6217 56.1381Z"/>
<path d="M22.8868 57.6229C22.7414 57.9136 22.5505 58.3768 22.4778 58.6584C22.3234 59.1579 22.3234 59.167 21.869 59.2487C21.4691 59.3305 21.4237 59.3214 21.4691 59.1942C21.4873 59.1125 21.5509 58.8582 21.5964 58.6129C21.6963 58.0589 21.56 58.1588 21.2056 58.8945C20.9511 59.4213 20.9421 59.4304 20.3241 59.6302C19.7879 59.8028 19.6153 59.9209 19.0337 60.4931C18.5611 60.9654 18.2612 61.3559 18.025 61.8191C17.7342 62.4095 17.6978 62.5548 17.6978 63.1725C17.7069 64.435 18.2703 65.643 19.3881 66.7692C21.2147 68.6039 24.259 69.8664 28.103 70.366C29.1844 70.5022 32.2378 70.5022 33.3738 70.366C39.1716 69.6484 43.2428 67.0326 43.779 63.6811C43.9608 62.5367 43.5427 61.5194 42.4159 60.3568C41.8161 59.7392 41.4617 59.5666 40.3439 59.3214L40.0531 59.2578L40.4166 60.0208C40.6165 60.4386 40.8528 60.7928 40.9346 60.811C41.0437 60.8291 41.0527 60.8564 40.9619 60.9109C40.8801 60.9654 40.8892 61.1289 41.0073 61.6829C41.2254 62.6457 41.1618 64.0989 40.871 64.8619C40.6075 65.5521 40.144 66.2969 39.6533 66.7965C39.0262 67.4595 37.8721 68.2134 36.9815 68.5494C36.6907 68.6584 36.7089 68.6403 37.6358 67.95C39.8714 66.2697 40.5529 63.9627 39.4533 61.7919L39.2262 61.3468L38.6173 61.4104C38.2811 61.4468 37.9812 61.5012 37.9448 61.5285C37.9085 61.5648 37.9176 61.7556 37.963 61.9554C38.0084 62.1552 38.0448 62.5639 38.0448 62.8637V63.4086L37.863 62.8637C37.5904 62.0008 37.3178 61.5921 37.0542 61.6102C35.3367 61.7828 34.4916 61.8282 32.0107 61.8827C29.03 61.9372 26.7944 61.8464 24.468 61.583C23.2048 61.4468 21.2419 61.1016 21.2419 61.0289C21.2419 61.0017 21.4146 61.0108 21.6327 61.038C22.5505 61.1924 24.8315 61.365 27.1034 61.4649C30.3476 61.6012 37.0542 61.474 37.0542 61.2742C37.0542 61.2378 36.818 60.929 36.5362 60.593C35.891 59.83 34.6006 58.7764 34.2189 58.6947C33.7646 58.6039 28.4574 58.6311 26.7581 58.731C25.8948 58.7855 24.6679 58.8854 24.0227 58.9581C23.3775 59.0398 22.8323 59.0762 22.805 59.058C22.7868 59.0308 22.8504 58.7583 22.9595 58.4404C23.1594 57.8137 23.2957 57.0961 23.2048 57.0961C23.1776 57.0961 23.0322 57.3323 22.8868 57.6229ZM21.0693 61.8736C21.4691 62.0735 21.7872 62.8001 21.7872 63.4994C21.7872 64.2533 21.6418 64.7074 21.2874 65.0617C20.4332 65.9154 19.4154 64.8982 19.5335 63.3269C19.588 62.6638 19.8516 62.1098 20.2241 61.8827C20.5331 61.692 20.724 61.692 21.0693 61.8736ZM23.8955 62.3096C24.1045 62.464 24.2499 62.8637 24.1772 63.0635C24.15 63.1543 24.0409 63.3178 23.9409 63.4268C23.4593 63.9717 22.5324 63.3541 22.7959 62.6638C22.914 62.3459 23.1321 62.1915 23.4684 62.1915C23.6229 62.1915 23.8137 62.2369 23.8955 62.3096Z"/>
<path d="M36.7069 58.8554C36.7069 58.8736 36.9047 59.2634 37.1474 59.7349C37.3901 60.2064 37.6329 60.7413 37.6958 60.9317L37.8037 61.2672L38.3971 61.2128C38.7297 61.1766 39.0174 61.1403 39.0354 61.1222C39.0534 61.104 38.9185 60.8955 38.7477 60.6597C38.1543 59.8528 36.7069 58.5653 36.7069 58.8554Z"/>
<path d="M81.9683 2.70393C81.8449 4.013 81.7831 5.39617 81.7831 21.7778C81.7831 27.7797 82.8942 34.9055 85.1165 43.1551C85.0424 43.2045 84.9436 43.2416 84.8202 43.2663C84.1782 43.2663 83.6967 43.081 83.3757 42.7105C82.5362 40.9322 81.6226 38.314 80.635 34.8561C78.956 35.1278 77.3881 35.2637 75.9313 35.2637C74.4992 35.2637 73.4992 35.239 72.9313 35.1896C71.7708 37.6101 70.4745 40.1171 69.0424 42.7105C68.598 43.081 68.1412 43.2663 67.672 43.2663C67.2029 43.2663 66.9683 43.2292 66.9683 43.1551C67.9066 41.3027 69.1412 38.5487 70.672 34.8932C70.3757 34.8438 69.9066 34.745 69.2646 34.5968C68.8942 34.2016 68.7091 33.6582 68.7091 32.9666C68.7091 32.7937 68.7461 32.7073 68.8202 32.7073C68.8942 32.7073 69.0424 32.7443 69.2646 32.8184C69.7831 32.9666 70.4745 33.0901 71.3387 33.1889C73.7091 27.3846 75.351 7.75496 76.2646 4.14885L80.3387 2C81.03 2 81.5733 2.23464 81.9683 2.70393ZM73.8202 33.3001C76.1412 33.2507 78.2029 32.9666 80.0054 32.4479C78.993 28.6195 79.5956 10.8394 79.324 8.14716C77.9166 12.025 75.2523 30.0891 73.8202 33.3001Z"/>
<path d="M99.5221 42.7105C99.8678 39.3761 100.041 36.7333 100.041 34.782C100.041 30.9042 99.3122 28.9653 97.8555 28.9653C96.769 28.9653 95.6332 29.8668 94.4481 31.6699C93.2876 33.473 92.3246 36.017 91.5592 39.302H91.5221C91.3987 39.9195 91.1641 40.9939 90.8184 42.5253C90.6703 42.6982 90.4234 42.8464 90.0777 42.9699C89.7567 43.0934 89.4851 43.1551 89.2629 43.1551C89.0653 43.1551 88.9666 43.0934 88.9666 42.9699C90.0777 37.8077 90.6332 32.8802 90.6332 28.1873C90.6332 23.4697 90.1518 19.4807 89.1888 16.2204L90.1147 15.6276L93.0777 17.0355C93.3246 18.6904 93.4481 20.6663 93.4481 22.9634C93.4481 25.2357 93.2505 27.9279 92.8555 31.0401C93.8925 29.0641 95.0283 27.4834 96.2629 26.2978C97.5221 25.1122 98.7073 24.5194 99.8184 24.5194C101.794 24.5194 102.781 25.9149 102.781 28.706C102.781 31.003 102.572 33.6705 102.152 36.7086C101.732 39.7219 101.485 41.5867 101.411 42.303C101.065 42.6488 100.522 42.8217 99.7814 42.8217C99.6085 42.8217 99.5221 42.7846 99.5221 42.7105Z"/>
<path d="M108.594 2.74098L111.557 4.14885C111.828 5.9766 111.564 20.8516 111.564 23.0004C111.564 25.1246 111.441 27.3969 111.194 29.8174C110.675 34.7079 109.935 38.9439 108.972 42.5253C108.824 42.6982 108.564 42.8464 108.194 42.9699C107.824 43.0934 107.527 43.1551 107.305 43.1551C107.083 43.1551 106.972 43.0934 106.972 42.9699C108.132 38.03 108.713 33.1519 108.713 28.3355C108.713 23.5191 108.631 6.59409 107.668 3.33377L108.594 2.74098Z"/>
<path d="M125.46 25.0381L128.46 23.7414L129.349 24.2601C128.534 26.6559 128.127 29.4223 128.127 32.5591C128.127 33.8928 128.238 35.7453 128.46 38.1164C128.682 40.4876 128.892 42.093 129.09 42.9328C129.09 43.0069 128.905 43.044 128.534 43.044C128.164 43.044 127.806 42.8711 127.46 42.5253C126.67 40.6975 126.04 38.0053 125.571 34.4486C124.534 36.9185 123.287 38.9315 121.831 40.4876C120.398 42.0436 119.102 42.8217 117.942 42.8217C115.719 42.8217 114.608 41.4262 114.608 38.6351C114.608 37.0297 114.929 35.486 115.571 34.004C116.213 32.522 117.077 31.2253 118.164 30.1138C120.337 27.9156 122.769 26.2237 125.46 25.0381ZM119.942 38.3758C120.732 38.3758 121.608 37.7459 122.571 36.4863C123.559 35.2019 124.435 33.3989 125.201 31.0771C125.176 30.7313 125.164 30.0644 125.164 29.0765C125.164 28.0885 125.176 27.3599 125.201 26.8906C123.077 28.1008 121.361 29.3976 120.053 30.7807C118.744 32.1392 118.09 33.7446 118.09 35.5971C118.09 37.4496 118.707 38.3758 119.942 38.3758Z"/>
<path d="M72.8942 70.4184L72.8572 69.5662C72.2646 69.4921 71.5239 69.3439 70.635 69.1216C70.2646 68.7758 70.0794 68.2695 70.0794 67.6026C70.0794 67.3803 70.1165 67.2692 70.1905 67.2692C70.2893 67.2692 70.4498 67.2939 70.672 67.3433C71.1905 67.5162 71.9066 67.652 72.8202 67.7508C72.7214 65.8737 72.5115 63.9842 72.1905 62.0823C71.8942 60.1558 71.6226 58.6985 71.3757 57.7105L71.0054 56.2285L74.2276 54.7095L75.1905 55.3023C75.5609 57.5006 75.7461 59.6741 75.7461 61.823C75.7461 63.9718 75.6844 65.9725 75.5609 67.8249C78.8942 67.6767 81.6597 67.1086 83.8572 66.1207C83.8325 65.602 83.8202 64.4288 83.8202 62.601C83.8202 60.7485 84.0547 58.3156 84.5239 55.3023L85.4868 54.7095L88.635 56.2285C87.4992 59.1431 86.9313 63.626 86.9313 69.6774C86.9313 74.1727 87.1165 77.927 87.4868 80.9403C87.4868 81.0144 87.3881 81.0514 87.1905 81.0514C86.5486 81.0514 86.0671 80.8662 85.7461 80.4957C84.8572 75.9757 84.2893 72.135 84.0424 68.9734C81.4251 69.5168 79.0177 69.7885 76.8202 69.7885H75.4128C75.1412 72.6536 74.6597 76.161 73.9683 80.3105C73.7955 80.5081 73.5115 80.6686 73.1165 80.7921C72.7461 80.9403 72.4251 81.0144 72.1535 81.0144C71.9066 81.0144 71.7831 80.9526 71.7831 80.8291L71.8942 80.4216C72.5609 77.9764 72.8942 74.6419 72.8942 70.4184Z"/>
<path d="M106.055 62.8603L104.277 64.898C105.659 66.5776 106.351 68.6894 106.351 71.2334C106.351 74.8148 105.203 77.5688 102.906 79.4954C101.697 80.5081 100.203 81.0144 98.4249 81.0144C96.6718 81.0144 95.1656 80.3105 93.9064 78.9026C92.6718 77.4947 92.0545 75.5558 92.0545 73.0859C92.0545 70.4924 93.0175 68.1337 94.9434 66.0095C95.9558 64.898 97.3755 63.9718 99.2027 63.2308C101.055 62.4898 103.203 62.0206 105.647 61.823L106.055 62.8603ZM98.9805 77.6429C100.487 77.6429 101.734 77.0008 102.721 75.7164C103.734 74.432 104.24 73.0982 104.24 71.7151C104.24 68.7264 103.561 66.4171 102.203 64.7869C100.301 65.108 98.6965 65.9601 97.3879 67.3433C96.0792 68.7264 95.4249 70.2949 95.4249 72.0485C95.4249 73.8022 95.7335 75.173 96.3508 76.161C96.9928 77.1489 97.8694 77.6429 98.9805 77.6429Z"/>
<path d="M123.705 62.8603L121.927 64.898C123.31 66.5776 124.001 68.6894 124.001 71.2334C124.001 74.8148 122.853 77.5688 120.557 79.4954C119.347 80.5081 117.853 81.0144 116.075 81.0144C114.322 81.0144 112.816 80.3105 111.557 78.9026C110.322 77.4947 109.705 75.5558 109.705 73.0859C109.705 70.4924 110.668 68.1337 112.594 66.0095C113.606 64.898 115.026 63.9718 116.853 63.2308C118.705 62.4898 120.853 62.0206 123.298 61.823L123.705 62.8603ZM116.631 77.6429C118.137 77.6429 119.384 77.0008 120.372 75.7164C121.384 74.432 121.89 73.0982 121.89 71.7151C121.89 68.7264 121.211 66.4171 119.853 64.7869C117.952 65.108 116.347 65.9601 115.038 67.3433C113.73 68.7264 113.075 70.2949 113.075 72.0485C113.075 73.8022 113.384 75.173 114.001 76.161C114.643 77.1489 115.52 77.6429 116.631 77.6429Z"/>
<path d="M141.244 62.9344L140.281 66.8616C139.862 66.7628 139.43 66.7134 138.985 66.7134C137.578 66.7134 136.195 67.3309 134.837 68.5659C135.553 70.5418 136.541 72.6907 137.8 75.0124C139.084 77.3095 140.343 79.1372 141.578 80.4957V80.5328C141.578 80.8045 141.17 80.9403 140.355 80.9403C140.133 80.9403 139.985 80.9279 139.911 80.9032C138.578 79.7671 137.183 78.2357 135.726 76.3092C134.269 74.3579 133.22 72.7524 132.578 71.4928L132.541 71.4557C131.504 73.2341 130.825 75.1112 130.504 77.0872L130.355 77.2354L129.763 79.8659C129.615 80.0388 129.368 80.187 129.022 80.3105C128.701 80.434 128.454 80.4957 128.281 80.4957C128.109 80.4957 128.022 80.434 128.022 80.3105C129.059 75.4694 129.578 70.69 129.578 65.9725C129.578 61.2549 129.096 57.2659 128.133 54.0056L129.059 53.4128L132.022 54.8207C132.269 56.6731 132.392 58.822 132.392 61.2672C132.392 63.6878 132.096 66.8616 131.504 70.7888C133.75 66.2195 136.676 63.3667 140.281 62.2305L141.244 62.9344Z"/>
<path d="M154.215 62.8233L157.215 61.5266L158.103 62.0453C157.289 64.4411 156.881 67.2074 156.881 70.3443C156.881 71.678 156.992 73.5305 157.215 75.9016C157.437 78.2728 157.647 79.8782 157.844 80.718C157.844 80.7921 157.659 80.8291 157.289 80.8291C156.918 80.8291 156.56 80.6563 156.215 80.3105C155.424 78.4827 154.795 75.7905 154.326 72.2338C153.289 74.7037 152.042 76.7167 150.585 78.2728C149.153 79.8288 147.856 80.6069 146.696 80.6069C144.474 80.6069 143.363 79.2113 143.363 76.4203C143.363 74.8149 143.684 73.2711 144.326 71.7892C144.968 70.3072 145.832 69.0105 146.918 67.899C149.091 65.7008 151.523 64.0089 154.215 62.8233ZM148.696 76.161C149.486 76.161 150.363 75.5311 151.326 74.2715C152.313 72.9871 153.19 71.184 153.955 68.8623C153.931 68.5165 153.918 67.8496 153.918 66.8616C153.918 65.8737 153.931 65.145 153.955 64.6757C151.832 65.886 150.116 67.1827 148.807 68.5659C147.498 69.9244 146.844 71.5298 146.844 73.3823C146.844 75.2347 147.461 76.161 148.696 76.161Z"/>
<path d="M172.945 80.4957C173.291 77.1613 173.464 74.5185 173.464 72.5672C173.464 68.6894 172.735 66.7505 171.278 66.7505C170.192 66.7505 169.056 67.652 167.871 69.4551C166.711 71.2581 165.748 73.8022 164.982 77.0872H164.945C164.822 77.7047 164.587 78.7791 164.241 80.3105C164.093 80.4834 163.846 80.6316 163.501 80.755C163.18 80.8785 162.908 80.9403 162.686 80.9403C162.488 80.9403 162.39 80.8785 162.39 80.755C163.501 75.5929 164.056 70.6653 164.056 65.9725C164.056 61.2549 163.575 57.2659 162.612 54.0056L163.538 53.4128L166.501 54.8207C166.748 56.4755 166.871 58.4515 166.871 60.7485C166.871 63.0209 166.674 65.7131 166.278 68.8252C167.315 66.8493 168.451 65.2685 169.686 64.083C170.945 62.8974 172.13 62.3046 173.241 62.3046C175.217 62.3046 176.204 63.7001 176.204 66.4912C176.204 68.7882 175.994 71.4557 175.575 74.4938C175.155 77.5071 174.908 79.3719 174.834 80.0882C174.488 80.434 173.945 80.6069 173.204 80.6069C173.032 80.6069 172.945 80.5698 172.945 80.4957Z"/>
</mask>
<path d="M25.7752 2.21344C25.8116 2.33176 26.039 2.83234 26.2755 3.33292C26.7667 4.3523 27.3124 4.96211 28.2039 5.4991L28.7223 5.80855L28.3676 6.15441C27.9037 6.60949 27.7309 6.98266 27.7309 7.55605C27.7309 8.31148 28.213 9.02141 29.0043 9.43098C29.3045 9.5857 29.3045 9.64031 29.0498 10.3866L28.9406 10.7052L24.338 10.7325L19.7264 10.7507L19.5808 10.9691C19.408 11.2331 19.4262 11.2695 20.1994 12.4072C21.1817 13.8452 22.1368 14.2002 25.0384 14.2093H26.4028L26.1663 14.455C26.039 14.6007 25.8844 14.8009 25.8298 14.9101C25.6752 15.2196 25.7115 15.7748 25.9117 16.1024C26.1573 16.512 27.0396 17.0581 27.8491 17.3038L28.5313 17.5132L28.3312 17.8408C28.1402 18.1685 28.1402 18.1867 28.1402 25.2677V32.3669L28.3403 32.6946L28.5313 33.0313L27.9492 33.2771C27.6308 33.4136 27.1396 33.6866 26.8667 33.8778C26.5848 34.0689 26.3301 34.2327 26.2937 34.2327C26.2573 34.2327 26.0117 33.9142 25.7388 33.5228C24.5473 31.839 23.7195 30.7923 23.3921 30.5648C22.7371 30.1097 21.7457 30.2917 21.0635 30.9926C20.6451 31.4385 20.4268 31.8936 20.3813 32.4761C20.2903 33.5683 20.7178 33.9233 23.8196 35.3158C24.3926 35.5798 24.8929 35.8164 24.9293 35.8528C24.9657 35.8892 24.902 36.1623 24.8019 36.4626C24.4381 37.5093 24.6018 39.1112 25.1567 39.9576C25.2931 40.1669 25.2931 40.1942 25.1385 40.2853C24.7928 40.4855 23.2192 41.6778 23.0282 41.8871C22.6189 42.3331 22.5188 43.0157 22.7917 43.58C22.9646 43.9441 23.7377 44.6176 24.7201 45.2638C25.284 45.6279 25.3477 45.7007 25.1476 45.7007C24.7747 45.7007 24.4017 45.9282 24.2744 46.2377C24.2107 46.4106 24.1743 46.7929 24.1925 47.2388C24.238 48.1399 24.429 48.3947 25.1112 48.4858C25.3477 48.5222 25.5478 48.5586 25.5478 48.5677C25.5478 48.5859 25.4841 48.9317 25.4023 49.3504C24.8474 52.2993 23.5012 54.4291 21.0453 56.2676C20.3904 56.75 19.8901 57.023 18.5894 57.5782C7.61956 62.2928 3.43539 65.351 2.26201 69.5468C1.98003 70.5388 1.91636 72.0497 2.11647 72.9507C3.1807 77.7109 10.0118 80.7963 21.5456 81.6974C24.1106 81.8976 29.3045 81.9704 32.2789 81.843C34.7075 81.7338 38.9735 81.4425 39.6739 81.3242C39.9741 81.2787 40.0651 81.306 40.2652 81.4971C40.9656 82.1615 42.0571 82.1706 42.7484 81.5062C42.9758 81.2878 42.994 81.2878 43.3123 81.4243C43.9309 81.6791 44.8314 81.579 45.2407 81.1968C45.3953 81.0511 46.2958 80.8782 49.9706 80.2775C54.3913 79.5585 54.5368 79.5494 55.1281 79.6586C55.6102 79.7496 55.8285 79.7496 56.1105 79.6586C56.5289 79.5312 57.0564 79.1034 57.2474 78.7393C57.3293 78.5846 57.5294 78.439 57.8114 78.3298C58.0479 78.2388 58.5209 78.0294 58.8574 77.8656C59.5578 77.5197 59.667 77.5015 59.9763 77.7018C60.7221 78.1932 61.0587 76.7734 60.3674 76.0271C60.1036 75.754 59.8853 75.7722 59.6124 76.0908C59.385 76.3456 59.3668 76.3456 58.1025 76.4002C56.9655 76.4457 56.7836 76.4275 56.538 76.2819C55.8376 75.8723 55.0189 75.9816 54.3549 76.5459L53.9729 76.8826L45.2953 78.2843L44.9042 78.1022C44.1947 77.7837 43.3578 77.9202 42.8121 78.439C42.6301 78.6119 42.5301 78.6483 42.4482 78.5846C42.3846 78.53 42.1481 78.439 41.9298 78.3753C41.2839 78.2024 40.7109 78.3935 40.1651 78.9487C39.6557 79.4675 39.7922 79.4402 36.4176 79.6859C26.4028 80.414 17.6616 79.8679 11.7219 78.1386C7.89244 77.0282 5.2546 75.3536 4.30861 73.4422C4.00844 72.8233 3.96296 72.6413 3.91748 71.8859C3.73556 68.3727 6.56442 65.4238 13.3137 62.0926C15.3421 61.0823 16.3608 60.6181 16.3608 60.6818C16.3608 60.7092 16.279 60.8912 16.1698 61.0914C15.8878 61.6466 15.6332 62.7661 15.6332 63.4396C15.6423 66.2338 17.6161 68.6821 21.3 70.466L22.4643 71.0212L21.3636 71.8404C20.0902 72.7869 19.881 73.0509 19.9356 73.6334C20.0174 74.3706 20.3904 74.68 21.682 75.0532C23.6377 75.6175 26.1573 75.9088 29.8229 75.9816C33.9798 76.0635 36.9451 75.845 39.1737 75.2807C41.0656 74.7984 41.7024 74.316 41.6205 73.4331C41.575 72.8961 41.4931 72.8051 40.1651 71.8039L39.0918 71.003L39.6648 70.7573C41.3749 70.02 42.7302 69.1281 43.8308 68.0086C45.3044 66.5068 45.9229 65.1507 45.9229 63.4123C45.9229 62.1381 45.4772 60.9549 44.5494 59.7262C43.9036 58.8706 43.3487 58.3701 41.2839 56.8319C38.9463 55.0935 37.9184 53.9558 37.0998 52.2356C36.5995 51.1707 36.5995 51.1889 37.2362 50.8158C38.0912 50.3243 44.2765 46.5835 45.7865 45.6461C48.7245 43.8349 51.144 41.9417 53.2452 39.8393C55.2736 37.8005 56.4197 36.2897 57.4203 34.3328C58.3845 32.4488 58.7847 30.9471 58.7847 29.2724C58.7847 27.9982 58.63 27.3155 58.148 26.3326C57.5294 25.113 56.1013 24.039 54.5186 23.6203C53.6818 23.4019 52.0354 23.3564 51.0622 23.5202C49.7068 23.7568 48.206 24.312 46.8962 25.0492C46.5505 25.2495 46.1503 25.4042 46.0048 25.4042C45.3862 25.4042 44.8223 25.8411 44.6949 26.4145C44.6313 26.6784 44.6131 26.6875 44.2765 26.6329C43.8217 26.551 43.9127 26.4873 41.3931 28.5807C39.3556 30.2644 39.3192 30.2917 38.828 30.3373C38.3641 30.3828 38.3095 30.4192 37.782 30.9653C37.4818 31.2838 36.8269 32.1212 36.3357 32.822C35.8445 33.5228 35.4079 34.1326 35.3624 34.1781C35.326 34.2236 35.0532 34.0962 34.753 33.896C34.4619 33.6957 33.9525 33.4227 33.6251 33.2771L33.0429 33.0222L33.4614 32.2031V18.3323L33.2521 17.9136L33.0338 17.495L33.4432 17.3948C34.0344 17.2492 34.9167 16.8305 35.2715 16.5211C35.6717 16.1934 35.9355 15.6018 35.8627 15.2287C35.8263 15.0739 35.6717 14.7827 35.4989 14.5916L35.1987 14.2366L36.9451 14.182C38.7825 14.1365 39.2464 14.0546 40.1015 13.6177C40.5744 13.372 40.911 13.0261 41.484 12.207C42.1117 11.3059 42.139 11.2331 41.9752 10.9691L41.8297 10.7507L37.218 10.7325L32.6154 10.7052L32.4517 10.2501C32.2334 9.61301 32.2334 9.59481 32.6336 9.39457C33.4614 8.9668 34.0071 7.97472 33.8343 7.20109C33.7342 6.76422 33.3613 6.18172 33.0338 5.96328L32.8064 5.81765L33.3067 5.5264C33.898 5.19875 34.5438 4.60714 34.9076 4.07015C35.1441 3.72429 35.8263 2.25894 35.8263 2.08601C35.8263 2.04961 33.5523 2.0132 30.7689 2.0132H25.7206L25.7752 2.21344ZM27.3579 3.26922C27.9492 4.07016 28.5677 4.65265 29.2408 5.03492C29.8684 5.38988 29.7229 5.48089 28.977 5.19875C28.3858 4.98031 27.649 4.3523 27.3215 3.7971C27.1123 3.43304 26.794 2.6503 26.8576 2.6503C26.8758 2.6503 27.1032 2.93246 27.3579 3.26922ZM29.168 6.35465C28.8588 6.6732 28.7132 7.05547 28.7132 7.52875C28.7132 8.02023 28.9043 8.3752 29.3863 8.79387C29.7047 9.07601 29.732 9.12152 29.5501 9.06691C28.8861 8.87578 28.4222 8.35699 28.3221 7.70168C28.2493 7.2375 28.5586 6.60039 28.9952 6.31824C29.4045 6.04519 29.45 6.05429 29.168 6.35465ZM32.5518 6.33643C33.334 6.73691 33.2431 7.92922 32.4335 7.92922C31.6785 7.92922 31.1692 6.92805 31.6603 6.40925C31.8877 6.16351 32.1788 6.1453 32.5518 6.33643ZM29.8502 10.3138C29.8957 10.6597 29.8866 10.7507 29.7775 10.7507C29.7138 10.7507 29.6319 10.7143 29.6046 10.6779C29.5592 10.6051 29.732 9.80413 29.7775 9.85875C29.7866 9.87695 29.8229 10.0772 29.8502 10.3138ZM22.1368 12.8896C22.8918 13.2263 23.7468 13.2809 29.732 13.3537C37.3817 13.4448 38.4824 13.5085 33.6524 13.5904C28.3858 13.6905 23.7923 13.6814 23.1556 13.5722C22.0277 13.3902 21.0544 12.7166 20.5086 11.7428C20.3631 11.4879 20.454 11.5425 20.9816 12.0522C21.3727 12.4254 21.8185 12.753 22.1368 12.8896ZM33.9162 14.4823C34.4255 14.6189 34.6166 14.8009 34.4983 15.0011C34.3346 15.2742 33.7524 15.4107 32.6427 15.4562C31.533 15.5108 30.5597 15.347 30.2868 15.0739C30.0776 14.8737 30.3869 14.6007 30.9509 14.4914C31.2055 14.4368 31.4966 14.3731 31.5967 14.3549C31.8877 14.2821 33.5614 14.3731 33.9162 14.4823ZM26.8122 14.9192C26.5302 15.4107 26.6212 15.6837 27.2124 16.066C27.4671 16.2389 28.0219 16.512 28.4404 16.6667C28.8497 16.8305 29.1771 16.9853 29.1589 17.0035C29.1317 17.0217 28.8406 16.9944 28.504 16.9398C26.8031 16.6667 25.8571 15.6109 26.6302 14.8373C26.9941 14.4823 27.0487 14.5005 26.8122 14.9192ZM31.6513 18.2777C31.8514 18.4597 32.1061 18.7783 32.2152 18.9785C32.4153 19.3517 32.4153 19.3608 32.4153 25.2677V31.1837L32.1515 31.6661C31.915 32.0848 31.624 32.3851 31.2055 32.6308C31.1328 32.6764 31.1783 32.5307 31.2965 32.3123L31.5057 31.9118L31.533 25.4315C31.5603 18.8147 31.5603 18.8602 31.2328 18.0957C31.1328 17.859 31.2419 17.9045 31.6513 18.2777ZM29.3136 18.3505C28.9406 18.9148 28.9224 19.3335 28.977 25.386C29.0225 30.7377 29.0407 31.2201 29.1953 31.6115C29.4227 32.1849 29.3409 32.1667 29.0407 31.566C28.8042 31.1109 28.7951 31.0017 28.7132 28.9993C28.6678 27.8434 28.6496 25.2677 28.6587 23.2653C28.6859 20.1526 28.7132 19.561 28.8497 19.1696C29.0043 18.7146 29.3227 18.123 29.4136 18.123C29.4409 18.123 29.3954 18.2231 29.3136 18.3505ZM53.9911 24.0936C56.065 24.5214 57.3475 25.5589 57.8933 27.2518C58.5209 29.2178 58.148 31.7844 56.9018 34.0689C56.2924 35.1884 56.1468 35.3067 56.6016 34.3237C57.9933 31.3566 58.2116 28.6808 57.2474 26.7057C56.538 25.2677 55.0189 24.3848 52.7358 24.0936L51.7898 23.9753L52.5448 23.9571C52.9632 23.9571 53.609 24.0117 53.9911 24.0936ZM53.9092 25.4497C54.5914 25.6135 55.4373 26.0231 55.874 26.4145C56.5652 27.0152 57.011 28.4623 56.8927 29.7092C56.6471 32.3214 55.0553 35.2248 52.2901 38.0918C50.5346 39.9121 48.5608 41.5322 46.1503 43.1522C44.604 44.1898 36.3721 49.1593 36.1993 49.1593C36.1447 49.1593 36.0992 49.0774 36.0992 48.9863C36.0992 48.8862 36.081 48.7497 36.0446 48.6769C36.0082 48.5768 36.0992 48.5313 36.4358 48.4949C36.7723 48.4585 36.9269 48.3856 37.1271 48.1581C37.3817 47.8669 37.3908 47.8395 37.3545 47.0113C37.3181 46.0374 37.1907 45.8099 36.5904 45.7098L36.2538 45.6552L36.8815 45.2365C37.8638 44.5812 38.6552 43.8895 38.7916 43.5527C38.9554 43.1614 38.9554 42.5697 38.7825 42.2512C38.6097 41.9144 37.9184 41.2955 37.027 40.6857L36.2993 40.1851L36.5267 39.7483C37.0361 38.7471 37.118 37.4001 36.7359 36.3898C36.5631 35.9438 36.5631 35.9074 36.7086 35.7982C36.7905 35.7436 36.8906 35.689 36.936 35.689C36.9724 35.689 37.7547 35.3249 38.6734 34.888C40.5744 33.9688 41.0565 33.6138 41.1657 33.0222C41.2385 32.6582 41.3567 32.5398 43.2305 30.9835C45.9866 28.6808 45.741 28.9447 45.741 28.4077C45.741 27.9618 45.7501 27.9526 46.0139 27.9526C46.4141 27.9526 46.787 27.7342 47.0053 27.3701C47.3419 26.8332 49.5977 25.7774 51.1076 25.4588C51.8899 25.2859 53.1997 25.2859 53.9092 25.4497ZM45.8138 26.733C45.8683 26.8423 46.0502 26.9879 46.214 27.0698L46.5141 27.2245H46.2595C46.1139 27.2245 45.932 27.1881 45.841 27.1335C45.6045 27.0061 45.4317 26.551 45.5136 26.2507L45.741 26.1551L45.65 26.2689C45.6773 26.4145 45.7592 26.6238 45.8138 26.733ZM38.8917 31.0836C38.7189 31.5296 39.3283 32.4033 40.0378 32.731C40.3925 32.9039 40.438 32.9403 40.2834 32.9858C39.8013 33.1132 39.0645 32.6673 38.7916 32.103C38.6188 31.7389 38.6006 31.2201 38.7552 31.0654C38.9008 30.9198 38.9463 30.9289 38.8917 31.0836ZM23.1919 31.3566C23.2738 31.4112 23.8923 32.1303 24.5745 32.9585C25.4569 34.0416 25.7752 34.4876 25.7115 34.5695C25.6479 34.6514 25.3295 34.4421 24.4745 33.7503C22.819 32.4033 22.3642 31.9482 22.3642 31.6024C22.3642 31.1655 22.7553 31.0472 23.1919 31.3566ZM37.882 32.1121C37.4818 32.9039 36.5631 34.1053 36.0537 34.5058C35.8263 34.6787 36.3266 33.7776 36.8724 33.004C37.3363 32.3487 38.0185 31.566 38.073 31.6297C38.0912 31.6479 38.0094 31.8663 37.882 32.1121ZM21.8366 33.541C22.9373 33.9506 25.1749 35.1793 25.0566 35.3067C24.9293 35.4341 22.4006 34.2236 21.5911 33.6411C21.0544 33.268 21.0817 33.2498 21.8366 33.541ZM27.8946 34.3237C26.2027 35.4341 25.4387 36.854 25.5751 38.6743L25.6206 39.3751L25.4932 38.9655C25.1749 37.9735 25.2658 36.8813 25.7388 35.9438C26.0572 35.3249 26.8758 34.5786 27.6399 34.2054C28.595 33.7412 28.7132 33.7867 27.8946 34.3237ZM33.5068 34.2418C34.1981 34.4967 35.0895 35.3431 35.4625 36.0712C35.8263 36.8176 35.8445 37.4638 35.4989 37.8187C35.2988 38.0099 35.1714 38.0554 34.7894 38.0554C33.4886 38.0554 31.8241 36.3989 31.8241 35.0974C31.8241 34.1417 32.4244 33.8323 33.5068 34.2418ZM30.5051 34.4512C31.0782 34.6878 31.1874 35.334 30.7416 35.7891C30.2868 36.2351 29.641 36.1258 29.4045 35.5433C29.2954 35.2794 29.2954 35.1884 29.3954 34.9335C29.541 34.6059 29.6956 34.4512 29.9594 34.3874C30.0594 34.3692 30.1504 34.3419 30.1686 34.3328C30.1777 34.3328 30.3323 34.3783 30.5051 34.4512ZM25.3568 41.3228C24.3471 42.0237 23.9105 42.506 23.9105 42.9156C23.9105 43.1614 23.9924 43.2979 24.3926 43.6619C24.6473 43.9077 25.2022 44.3537 25.6206 44.6449C26.0299 44.9271 26.3665 45.1819 26.3665 45.2092C26.3665 45.2911 25.6934 44.9635 24.9839 44.5448C24.5836 44.299 24.1016 43.935 23.9105 43.7165C23.3375 43.0703 23.3557 42.5971 24.0015 41.969C24.3653 41.6141 25.7934 40.7858 26.039 40.7858C26.0845 40.7858 25.7752 41.0316 25.3568 41.3228ZM36.4449 41.341C37.0816 41.7688 37.6455 42.3422 37.6455 42.5698C37.6455 42.8155 37.4272 43.0066 36.9633 43.1614C36.4358 43.3434 33.3067 43.3252 32.2789 43.134C31.251 42.9338 30.9509 42.8246 31.0873 42.6608C31.2146 42.5151 31.8423 42.3786 33.2794 42.1966C34.5802 42.0237 35.3988 41.7415 35.7354 41.341C35.8627 41.1954 35.9719 41.068 35.9901 41.068C36.0082 41.0589 36.2084 41.1863 36.4449 41.341ZM25.848 46.2195C25.7843 46.2377 25.6479 46.4015 25.5387 46.5744C25.3113 46.9476 25.3477 47.3663 25.6479 47.7394C25.8662 48.0125 25.7115 48.0671 25.4023 47.8122C24.993 47.4846 24.8838 46.9112 25.1476 46.5289C25.3022 46.3196 25.8298 46.0374 25.9117 46.1285C25.9389 46.1558 25.9117 46.2013 25.848 46.2195ZM35.6353 46.4652C35.8627 46.5198 36.0537 46.6017 36.0537 46.6563C36.0537 46.8839 35.3078 47.0113 33.8707 47.0113C31.9696 47.0204 30.9781 46.7929 31.7058 46.5107C32.388 46.2559 34.6802 46.2286 35.6353 46.4652ZM27.4125 48.8589C27.0396 51.0342 26.0572 53.5007 25.0657 54.7294C24.6018 55.2937 24.7019 55.3119 25.3386 54.7567C26.5211 53.7374 27.9947 51.4529 28.786 49.405L29.1226 48.5222H32.0242C33.616 48.5222 34.9167 48.5404 34.9167 48.5586C34.9167 48.7042 35.226 50.2151 35.3351 50.5973L35.4716 51.0888L34.8894 51.6167C34.3346 52.1355 33.5705 53.1185 33.6615 53.2095C33.716 53.2732 34.7985 52.363 35.2078 51.9079C35.5716 51.4984 35.6444 51.462 35.6444 51.6349C35.6444 51.8442 36.5267 53.5826 36.9269 54.1833C37.6 55.1936 38.8553 56.3768 40.7109 57.7785C42.7029 59.2711 43.4033 59.9173 43.9582 60.7911C44.704 61.9561 44.986 63.2303 44.7404 64.3862C44.3584 66.252 42.5665 68.136 39.965 69.4102C37.3908 70.6663 34.2891 71.3034 30.778 71.3034C26.4574 71.3034 22.7371 70.3204 19.9083 68.4273C19.0715 67.8721 17.8708 66.6707 17.4706 65.9881C16.2517 63.922 16.561 61.7831 18.3529 59.8718C18.7895 59.4167 19.6991 58.6522 20.7997 57.824C23.4194 55.8671 24.4563 54.7567 25.3568 52.9364C25.8844 51.8715 26.2027 50.8795 26.4756 49.5051L26.6666 48.5222H27.4671L27.4125 48.8589ZM6.00957 66.1519C4.65426 67.4807 3.91748 68.7094 3.52635 70.2749C3.27166 71.267 3.31714 72.5867 3.62641 73.4149C3.89929 74.1249 4.50872 74.9804 5.09996 75.4901C7.70143 77.6745 12.1858 79.1944 18.6348 80.0682C20.072 80.2593 20.1357 80.2775 19.317 80.232C14.5052 79.9772 9.45696 78.6847 6.52804 76.9554C4.92714 76.0089 4.01754 75.1078 3.45358 73.9337C2.2802 71.4308 3.47178 67.9904 6.30973 65.715C6.6099 65.4693 6.86459 65.2781 6.88278 65.269C6.90098 65.269 6.50985 65.6695 6.00957 66.1519ZM24.1106 71.5309C24.238 71.5855 24.1106 71.7129 23.5376 72.1407C22.3096 73.0418 22.0913 73.4422 22.6826 73.6971C23.1192 73.8791 24.8383 74.1613 26.5939 74.3342C28.3676 74.5071 33.9434 74.6163 33.7342 74.4707C33.6615 74.4161 33.2885 74.3706 32.9065 74.3706C31.2328 74.3706 26.5302 73.7699 26.1391 73.515C25.7115 73.2329 25.7388 72.5958 26.1845 72.259C26.4028 72.1043 26.4756 72.0952 27.3034 72.2044L28.1857 72.3136L27.9765 72.5321L27.7763 72.7505L28.031 72.969C28.4585 73.333 29.1135 73.4786 30.5961 73.5241C32.6063 73.597 34.0071 73.2875 34.0799 72.7596C34.0981 72.6413 34.0253 72.5139 33.898 72.4229C33.7888 72.3409 33.7433 72.2772 33.7979 72.2772C34.089 72.2772 36.1629 71.8768 36.8997 71.6856C37.3726 71.5582 37.7911 71.4581 37.8365 71.4581C37.9821 71.4581 37.9275 71.6128 37.7638 71.6674C37.6728 71.6947 36.9087 71.9678 36.0537 72.2681C34.5438 72.8051 34.5256 72.8233 35.0986 72.7687C35.8536 72.705 38.5097 72.3774 38.7643 72.3227C38.9099 72.2863 39.1918 72.4411 39.7649 72.8688C40.2015 73.1965 40.5563 73.5059 40.5563 73.5515C40.5563 73.8154 38.637 74.3615 36.8724 74.5981C33.8252 75.0168 28.4676 75.0077 25.093 74.589C23.1101 74.3433 21.0453 73.8245 21.0453 73.5697C21.0453 73.4149 23.6377 71.4581 23.8196 71.4672C23.8923 71.4672 24.0288 71.4945 24.1106 71.5309ZM60.1855 76.3001C60.2491 76.3638 60.2946 76.5004 60.2946 76.6187C60.2946 76.919 59.9581 76.9008 59.8762 76.6096C59.7852 76.2455 59.9672 76.0817 60.1855 76.3001ZM56.4015 76.8917C56.8017 77.2558 56.829 77.9384 56.4379 78.1113C56.0104 78.3116 55.3828 77.7382 55.3828 77.1557C55.3828 76.6915 56.0013 76.5277 56.4015 76.8917ZM59.2031 76.8007C59.3759 76.9554 58.3572 77.1466 57.8205 77.0556C57.393 76.9827 57.4658 76.8371 57.9933 76.737C58.3208 76.6733 59.103 76.7097 59.2031 76.8007ZM52.7722 77.9657C51.1895 78.3662 46.7779 79.0124 46.4414 78.8941C46.2777 78.8395 47.8422 78.4936 49.6159 78.1932C51.3987 77.8838 52.3993 77.7655 53.1088 77.7564H53.609L52.7722 77.9657ZM44.704 78.7757C45.0952 79.1671 45.1406 79.6586 44.795 79.877C44.604 80.0045 44.5403 80.0045 44.2583 79.8861C43.7126 79.6586 43.4852 78.9942 43.8308 78.6483C44.0946 78.3844 44.3493 78.4208 44.704 78.7757ZM42.2026 79.2763C42.3936 79.4675 42.4664 79.6313 42.4664 79.8679C42.4664 80.4868 41.9298 80.6689 41.4659 80.2047C41.1202 79.8679 41.0383 79.5312 41.2294 79.2399C41.4386 78.9214 41.857 78.9305 42.2026 79.2763Z" fill="url(#paint0_linear_3_2)"/>
<path d="M33.6111 51.5891C33.4205 51.7372 33.1028 52.0149 32.9213 52.2093C32.531 52.6259 31.7414 53.8293 31.8049 53.9034C31.8866 53.9774 33.1119 52.6999 33.5203 52.1075C34.1556 51.2003 34.1556 51.1725 33.6111 51.5891Z" fill="url(#paint1_linear_3_2)"/>
<path d="M31.1752 52.7529C30.5706 53.3931 29.8543 54.5158 29.9752 54.6364C30.0868 54.7477 31.2775 53.3189 31.7427 52.5024C31.8822 52.2611 31.9566 52.0663 31.9101 52.0663C31.8543 52.0663 31.5287 52.3725 31.1752 52.7529Z" fill="url(#paint2_linear_3_2)"/>
<path d="M29.5181 53.4217C29.0314 53.934 28.1422 55.3913 28.2545 55.4973C28.3106 55.5591 28.9097 54.8967 29.3309 54.3049C29.6772 53.8192 30.1358 52.9801 30.0797 52.9271C30.0516 52.9006 29.8082 53.1303 29.5181 53.4217Z" fill="url(#paint3_linear_3_2)"/>
<path d="M27.8792 54.1258C27.2492 54.8839 26.5111 56.3288 26.6731 56.4805C26.7001 56.5072 26.8891 56.2932 27.0962 56.0078C27.4922 55.4548 28.3202 53.8671 28.2392 53.7869C28.2212 53.7601 28.0502 53.9117 27.8792 54.1258Z" fill="url(#paint4_linear_3_2)"/>
<path d="M26.1807 55.1399C25.6394 55.8446 24.9177 57.4323 25.0792 57.584C25.1456 57.6464 25.7629 56.6741 26.0857 55.9962C26.3611 55.4342 26.589 54.7652 26.513 54.7652C26.494 54.7652 26.3421 54.9347 26.1807 55.1399Z" fill="url(#paint5_linear_3_2)"/>
<path d="M24.6217 56.1381C24.0872 56.9139 23.5139 58.4008 23.5916 58.7979C23.6402 58.9919 24.4856 57.3387 24.6897 56.6553C24.8743 56.0458 24.8452 55.8149 24.6217 56.1381Z" fill="url(#paint6_linear_3_2)"/>
<path d="M22.8868 57.6229C22.7414 57.9136 22.5505 58.3768 22.4778 58.6584C22.3234 59.1579 22.3234 59.167 21.869 59.2487C21.4691 59.3305 21.4237 59.3214 21.4691 59.1942C21.4873 59.1125 21.5509 58.8582 21.5964 58.6129C21.6963 58.0589 21.56 58.1588 21.2056 58.8945C20.9511 59.4213 20.9421 59.4304 20.3241 59.6302C19.7879 59.8028 19.6153 59.9209 19.0337 60.4931C18.5611 60.9654 18.2612 61.3559 18.025 61.8191C17.7342 62.4095 17.6978 62.5548 17.6978 63.1725C17.7069 64.435 18.2703 65.643 19.3881 66.7692C21.2147 68.6039 24.259 69.8664 28.103 70.366C29.1844 70.5022 32.2378 70.5022 33.3738 70.366C39.1716 69.6484 43.2428 67.0326 43.779 63.6811C43.9608 62.5367 43.5427 61.5194 42.4159 60.3568C41.8161 59.7392 41.4617 59.5666 40.3439 59.3214L40.0531 59.2578L40.4166 60.0208C40.6165 60.4386 40.8528 60.7928 40.9346 60.811C41.0437 60.8291 41.0527 60.8564 40.9619 60.9109C40.8801 60.9654 40.8892 61.1289 41.0073 61.6829C41.2254 62.6457 41.1618 64.0989 40.871 64.8619C40.6075 65.5521 40.144 66.2969 39.6533 66.7965C39.0262 67.4595 37.8721 68.2134 36.9815 68.5494C36.6907 68.6584 36.7089 68.6403 37.6358 67.95C39.8714 66.2697 40.5529 63.9627 39.4533 61.7919L39.2262 61.3468L38.6173 61.4104C38.2811 61.4468 37.9812 61.5012 37.9448 61.5285C37.9085 61.5648 37.9176 61.7556 37.963 61.9554C38.0084 62.1552 38.0448 62.5639 38.0448 62.8637V63.4086L37.863 62.8637C37.5904 62.0008 37.3178 61.5921 37.0542 61.6102C35.3367 61.7828 34.4916 61.8282 32.0107 61.8827C29.03 61.9372 26.7944 61.8464 24.468 61.583C23.2048 61.4468 21.2419 61.1016 21.2419 61.0289C21.2419 61.0017 21.4146 61.0108 21.6327 61.038C22.5505 61.1924 24.8315 61.365 27.1034 61.4649C30.3476 61.6012 37.0542 61.474 37.0542 61.2742C37.0542 61.2378 36.818 60.929 36.5362 60.593C35.891 59.83 34.6006 58.7764 34.2189 58.6947C33.7646 58.6039 28.4574 58.6311 26.7581 58.731C25.8948 58.7855 24.6679 58.8854 24.0227 58.9581C23.3775 59.0398 22.8323 59.0762 22.805 59.058C22.7868 59.0308 22.8504 58.7583 22.9595 58.4404C23.1594 57.8137 23.2957 57.0961 23.2048 57.0961C23.1776 57.0961 23.0322 57.3323 22.8868 57.6229ZM21.0693 61.8736C21.4691 62.0735 21.7872 62.8001 21.7872 63.4994C21.7872 64.2533 21.6418 64.7074 21.2874 65.0617C20.4332 65.9154 19.4154 64.8982 19.5335 63.3269C19.588 62.6638 19.8516 62.1098 20.2241 61.8827C20.5331 61.692 20.724 61.692 21.0693 61.8736ZM23.8955 62.3096C24.1045 62.464 24.2499 62.8637 24.1772 63.0635C24.15 63.1543 24.0409 63.3178 23.9409 63.4268C23.4593 63.9717 22.5324 63.3541 22.7959 62.6638C22.914 62.3459 23.1321 62.1915 23.4684 62.1915C23.6229 62.1915 23.8137 62.2369 23.8955 62.3096Z" fill="url(#paint7_linear_3_2)"/>
<path d="M36.7069 58.8554C36.7069 58.8736 36.9047 59.2634 37.1474 59.7349C37.3901 60.2064 37.6329 60.7413 37.6958 60.9317L37.8037 61.2672L38.3971 61.2128C38.7297 61.1766 39.0174 61.1403 39.0354 61.1222C39.0534 61.104 38.9185 60.8955 38.7477 60.6597C38.1543 59.8528 36.7069 58.5653 36.7069 58.8554Z" fill="url(#paint8_linear_3_2)"/>
<path d="M81.9683 2.70393C81.8449 4.013 81.7831 5.39617 81.7831 21.7778C81.7831 27.7797 82.8942 34.9055 85.1165 43.1551C85.0424 43.2045 84.9436 43.2416 84.8202 43.2663C84.1782 43.2663 83.6967 43.081 83.3757 42.7105C82.5362 40.9322 81.6226 38.314 80.635 34.8561C78.956 35.1278 77.3881 35.2637 75.9313 35.2637C74.4992 35.2637 73.4992 35.239 72.9313 35.1896C71.7708 37.6101 70.4745 40.1171 69.0424 42.7105C68.598 43.081 68.1412 43.2663 67.672 43.2663C67.2029 43.2663 66.9683 43.2292 66.9683 43.1551C67.9066 41.3027 69.1412 38.5487 70.672 34.8932C70.3757 34.8438 69.9066 34.745 69.2646 34.5968C68.8942 34.2016 68.7091 33.6582 68.7091 32.9666C68.7091 32.7937 68.7461 32.7073 68.8202 32.7073C68.8942 32.7073 69.0424 32.7443 69.2646 32.8184C69.7831 32.9666 70.4745 33.0901 71.3387 33.1889C73.7091 27.3846 75.351 7.75496 76.2646 4.14885L80.3387 2C81.03 2 81.5733 2.23464 81.9683 2.70393ZM73.8202 33.3001C76.1412 33.2507 78.2029 32.9666 80.0054 32.4479C78.993 28.6195 79.5956 10.8394 79.324 8.14716C77.9166 12.025 75.2523 30.0891 73.8202 33.3001Z" fill="url(#paint9_linear_3_2)"/>
<path d="M99.5221 42.7105C99.8678 39.3761 100.041 36.7333 100.041 34.782C100.041 30.9042 99.3122 28.9653 97.8555 28.9653C96.769 28.9653 95.6332 29.8668 94.4481 31.6699C93.2876 33.473 92.3246 36.017 91.5592 39.302H91.5221C91.3987 39.9195 91.1641 40.9939 90.8184 42.5253C90.6703 42.6982 90.4234 42.8464 90.0777 42.9699C89.7567 43.0934 89.4851 43.1551 89.2629 43.1551C89.0653 43.1551 88.9666 43.0934 88.9666 42.9699C90.0777 37.8077 90.6332 32.8802 90.6332 28.1873C90.6332 23.4697 90.1518 19.4807 89.1888 16.2204L90.1147 15.6276L93.0777 17.0355C93.3246 18.6904 93.4481 20.6663 93.4481 22.9634C93.4481 25.2357 93.2505 27.9279 92.8555 31.0401C93.8925 29.0641 95.0283 27.4834 96.2629 26.2978C97.5221 25.1122 98.7073 24.5194 99.8184 24.5194C101.794 24.5194 102.781 25.9149 102.781 28.706C102.781 31.003 102.572 33.6705 102.152 36.7086C101.732 39.7219 101.485 41.5867 101.411 42.303C101.065 42.6488 100.522 42.8217 99.7814 42.8217C99.6085 42.8217 99.5221 42.7846 99.5221 42.7105Z" fill="url(#paint10_linear_3_2)"/>
<path d="M108.594 2.74098L111.557 4.14885C111.828 5.9766 111.564 20.8516 111.564 23.0004C111.564 25.1246 111.441 27.3969 111.194 29.8174C110.675 34.7079 109.935 38.9439 108.972 42.5253C108.824 42.6982 108.564 42.8464 108.194 42.9699C107.824 43.0934 107.527 43.1551 107.305 43.1551C107.083 43.1551 106.972 43.0934 106.972 42.9699C108.132 38.03 108.713 33.1519 108.713 28.3355C108.713 23.5191 108.631 6.59409 107.668 3.33377L108.594 2.74098Z" fill="url(#paint11_linear_3_2)"/>
<path d="M125.46 25.0381L128.46 23.7414L129.349 24.2601C128.534 26.6559 128.127 29.4223 128.127 32.5591C128.127 33.8928 128.238 35.7453 128.46 38.1164C128.682 40.4876 128.892 42.093 129.09 42.9328C129.09 43.0069 128.905 43.044 128.534 43.044C128.164 43.044 127.806 42.8711 127.46 42.5253C126.67 40.6975 126.04 38.0053 125.571 34.4486C124.534 36.9185 123.287 38.9315 121.831 40.4876C120.398 42.0436 119.102 42.8217 117.942 42.8217C115.719 42.8217 114.608 41.4262 114.608 38.6351C114.608 37.0297 114.929 35.486 115.571 34.004C116.213 32.522 117.077 31.2253 118.164 30.1138C120.337 27.9156 122.769 26.2237 125.46 25.0381ZM119.942 38.3758C120.732 38.3758 121.608 37.7459 122.571 36.4863C123.559 35.2019 124.435 33.3989 125.201 31.0771C125.176 30.7313 125.164 30.0644 125.164 29.0765C125.164 28.0885 125.176 27.3599 125.201 26.8906C123.077 28.1008 121.361 29.3976 120.053 30.7807C118.744 32.1392 118.09 33.7446 118.09 35.5971C118.09 37.4496 118.707 38.3758 119.942 38.3758Z" fill="url(#paint12_linear_3_2)"/>
<path d="M72.8942 70.4184L72.8572 69.5662C72.2646 69.4921 71.5239 69.3439 70.635 69.1216C70.2646 68.7758 70.0794 68.2695 70.0794 67.6026C70.0794 67.3803 70.1165 67.2692 70.1905 67.2692C70.2893 67.2692 70.4498 67.2939 70.672 67.3433C71.1905 67.5162 71.9066 67.652 72.8202 67.7508C72.7214 65.8737 72.5115 63.9842 72.1905 62.0823C71.8942 60.1558 71.6226 58.6985 71.3757 57.7105L71.0054 56.2285L74.2276 54.7095L75.1905 55.3023C75.5609 57.5006 75.7461 59.6741 75.7461 61.823C75.7461 63.9718 75.6844 65.9725 75.5609 67.8249C78.8942 67.6767 81.6597 67.1086 83.8572 66.1207C83.8325 65.602 83.8202 64.4288 83.8202 62.601C83.8202 60.7485 84.0547 58.3156 84.5239 55.3023L85.4868 54.7095L88.635 56.2285C87.4992 59.1431 86.9313 63.626 86.9313 69.6774C86.9313 74.1727 87.1165 77.927 87.4868 80.9403C87.4868 81.0144 87.3881 81.0514 87.1905 81.0514C86.5486 81.0514 86.0671 80.8662 85.7461 80.4957C84.8572 75.9757 84.2893 72.135 84.0424 68.9734C81.4251 69.5168 79.0177 69.7885 76.8202 69.7885H75.4128C75.1412 72.6536 74.6597 76.161 73.9683 80.3105C73.7955 80.5081 73.5115 80.6686 73.1165 80.7921C72.7461 80.9403 72.4251 81.0144 72.1535 81.0144C71.9066 81.0144 71.7831 80.9526 71.7831 80.8291L71.8942 80.4216C72.5609 77.9764 72.8942 74.6419 72.8942 70.4184Z" fill="url(#paint13_linear_3_2)"/>
<path d="M106.055 62.8603L104.277 64.898C105.659 66.5776 106.351 68.6894 106.351 71.2334C106.351 74.8148 105.203 77.5688 102.906 79.4954C101.697 80.5081 100.203 81.0144 98.4249 81.0144C96.6718 81.0144 95.1656 80.3105 93.9064 78.9026C92.6718 77.4947 92.0545 75.5558 92.0545 73.0859C92.0545 70.4924 93.0175 68.1337 94.9434 66.0095C95.9558 64.898 97.3755 63.9718 99.2027 63.2308C101.055 62.4898 103.203 62.0206 105.647 61.823L106.055 62.8603ZM98.9805 77.6429C100.487 77.6429 101.734 77.0008 102.721 75.7164C103.734 74.432 104.24 73.0982 104.24 71.7151C104.24 68.7264 103.561 66.4171 102.203 64.7869C100.301 65.108 98.6965 65.9601 97.3879 67.3433C96.0792 68.7264 95.4249 70.2949 95.4249 72.0485C95.4249 73.8022 95.7335 75.173 96.3508 76.161C96.9928 77.1489 97.8694 77.6429 98.9805 77.6429Z" fill="url(#paint14_linear_3_2)"/>
<path d="M123.705 62.8603L121.927 64.898C123.31 66.5776 124.001 68.6894 124.001 71.2334C124.001 74.8148 122.853 77.5688 120.557 79.4954C119.347 80.5081 117.853 81.0144 116.075 81.0144C114.322 81.0144 112.816 80.3105 111.557 78.9026C110.322 77.4947 109.705 75.5558 109.705 73.0859C109.705 70.4924 110.668 68.1337 112.594 66.0095C113.606 64.898 115.026 63.9718 116.853 63.2308C118.705 62.4898 120.853 62.0206 123.298 61.823L123.705 62.8603ZM116.631 77.6429C118.137 77.6429 119.384 77.0008 120.372 75.7164C121.384 74.432 121.89 73.0982 121.89 71.7151C121.89 68.7264 121.211 66.4171 119.853 64.7869C117.952 65.108 116.347 65.9601 115.038 67.3433C113.73 68.7264 113.075 70.2949 113.075 72.0485C113.075 73.8022 113.384 75.173 114.001 76.161C114.643 77.1489 115.52 77.6429 116.631 77.6429Z" fill="url(#paint15_linear_3_2)"/>
<path d="M141.244 62.9344L140.281 66.8616C139.862 66.7628 139.43 66.7134 138.985 66.7134C137.578 66.7134 136.195 67.3309 134.837 68.5659C135.553 70.5418 136.541 72.6907 137.8 75.0124C139.084 77.3095 140.343 79.1372 141.578 80.4957V80.5328C141.578 80.8045 141.17 80.9403 140.355 80.9403C140.133 80.9403 139.985 80.9279 139.911 80.9032C138.578 79.7671 137.183 78.2357 135.726 76.3092C134.269 74.3579 133.22 72.7524 132.578 71.4928L132.541 71.4557C131.504 73.2341 130.825 75.1112 130.504 77.0872L130.355 77.2354L129.763 79.8659C129.615 80.0388 129.368 80.187 129.022 80.3105C128.701 80.434 128.454 80.4957 128.281 80.4957C128.109 80.4957 128.022 80.434 128.022 80.3105C129.059 75.4694 129.578 70.69 129.578 65.9725C129.578 61.2549 129.096 57.2659 128.133 54.0056L129.059 53.4128L132.022 54.8207C132.269 56.6731 132.392 58.822 132.392 61.2672C132.392 63.6878 132.096 66.8616 131.504 70.7888C133.75 66.2195 136.676 63.3667 140.281 62.2305L141.244 62.9344Z" fill="url(#paint16_linear_3_2)"/>
<path d="M154.215 62.8233L157.215 61.5266L158.103 62.0453C157.289 64.4411 156.881 67.2074 156.881 70.3443C156.881 71.678 156.992 73.5305 157.215 75.9016C157.437 78.2728 157.647 79.8782 157.844 80.718C157.844 80.7921 157.659 80.8291 157.289 80.8291C156.918 80.8291 156.56 80.6563 156.215 80.3105C155.424 78.4827 154.795 75.7905 154.326 72.2338C153.289 74.7037 152.042 76.7167 150.585 78.2728C149.153 79.8288 147.856 80.6069 146.696 80.6069C144.474 80.6069 143.363 79.2113 143.363 76.4203C143.363 74.8149 143.684 73.2711 144.326 71.7892C144.968 70.3072 145.832 69.0105 146.918 67.899C149.091 65.7008 151.523 64.0089 154.215 62.8233ZM148.696 76.161C149.486 76.161 150.363 75.5311 151.326 74.2715C152.313 72.9871 153.19 71.184 153.955 68.8623C153.931 68.5165 153.918 67.8496 153.918 66.8616C153.918 65.8737 153.931 65.145 153.955 64.6757C151.832 65.886 150.116 67.1827 148.807 68.5659C147.498 69.9244 146.844 71.5298 146.844 73.3823C146.844 75.2347 147.461 76.161 148.696 76.161Z" fill="url(#paint17_linear_3_2)"/>
<path d="M172.945 80.4957C173.291 77.1613 173.464 74.5185 173.464 72.5672C173.464 68.6894 172.735 66.7505 171.278 66.7505C170.192 66.7505 169.056 67.652 167.871 69.4551C166.711 71.2581 165.748 73.8022 164.982 77.0872H164.945C164.822 77.7047 164.587 78.7791 164.241 80.3105C164.093 80.4834 163.846 80.6316 163.501 80.755C163.18 80.8785 162.908 80.9403 162.686 80.9403C162.488 80.9403 162.39 80.8785 162.39 80.755C163.501 75.5929 164.056 70.6653 164.056 65.9725C164.056 61.2549 163.575 57.2659 162.612 54.0056L163.538 53.4128L166.501 54.8207C166.748 56.4755 166.871 58.4515 166.871 60.7485C166.871 63.0209 166.674 65.7131 166.278 68.8252C167.315 66.8493 168.451 65.2685 169.686 64.083C170.945 62.8974 172.13 62.3046 173.241 62.3046C175.217 62.3046 176.204 63.7001 176.204 66.4912C176.204 68.7882 175.994 71.4557 175.575 74.4938C175.155 77.5071 174.908 79.3719 174.834 80.0882C174.488 80.434 173.945 80.6069 173.204 80.6069C173.032 80.6069 172.945 80.5698 172.945 80.4957Z" fill="url(#paint18_linear_3_2)"/>
<path d="M25.7752 2.21344C25.8116 2.33176 26.039 2.83234 26.2755 3.33292C26.7667 4.3523 27.3124 4.96211 28.2039 5.4991L28.7223 5.80855L28.3676 6.15441C27.9037 6.60949 27.7309 6.98266 27.7309 7.55605C27.7309 8.31148 28.213 9.02141 29.0043 9.43098C29.3045 9.5857 29.3045 9.64031 29.0498 10.3866L28.9406 10.7052L24.338 10.7325L19.7264 10.7507L19.5808 10.9691C19.408 11.2331 19.4262 11.2695 20.1994 12.4072C21.1817 13.8452 22.1368 14.2002 25.0384 14.2093H26.4028L26.1663 14.455C26.039 14.6007 25.8844 14.8009 25.8298 14.9101C25.6752 15.2196 25.7115 15.7748 25.9117 16.1024C26.1573 16.512 27.0396 17.0581 27.8491 17.3038L28.5313 17.5132L28.3312 17.8408C28.1402 18.1685 28.1402 18.1867 28.1402 25.2677V32.3669L28.3403 32.6946L28.5313 33.0313L27.9492 33.2771C27.6308 33.4136 27.1396 33.6866 26.8667 33.8778C26.5848 34.0689 26.3301 34.2327 26.2937 34.2327C26.2573 34.2327 26.0117 33.9142 25.7388 33.5228C24.5473 31.839 23.7195 30.7923 23.3921 30.5648C22.7371 30.1097 21.7457 30.2917 21.0635 30.9926C20.6451 31.4385 20.4268 31.8936 20.3813 32.4761C20.2903 33.5683 20.7178 33.9233 23.8196 35.3158C24.3926 35.5798 24.8929 35.8164 24.9293 35.8528C24.9657 35.8892 24.902 36.1623 24.8019 36.4626C24.4381 37.5093 24.6018 39.1112 25.1567 39.9576C25.2931 40.1669 25.2931 40.1942 25.1385 40.2853C24.7928 40.4855 23.2192 41.6778 23.0282 41.8871C22.6189 42.3331 22.5188 43.0157 22.7917 43.58C22.9646 43.9441 23.7377 44.6176 24.7201 45.2638C25.284 45.6279 25.3477 45.7007 25.1476 45.7007C24.7747 45.7007 24.4017 45.9282 24.2744 46.2377C24.2107 46.4106 24.1743 46.7929 24.1925 47.2388C24.238 48.1399 24.429 48.3947 25.1112 48.4858C25.3477 48.5222 25.5478 48.5586 25.5478 48.5677C25.5478 48.5859 25.4841 48.9317 25.4023 49.3504C24.8474 52.2993 23.5012 54.4291 21.0453 56.2676C20.3904 56.75 19.8901 57.023 18.5894 57.5782C7.61956 62.2928 3.43539 65.351 2.26201 69.5468C1.98003 70.5388 1.91636 72.0497 2.11647 72.9507C3.1807 77.7109 10.0118 80.7963 21.5456 81.6974C24.1106 81.8976 29.3045 81.9704 32.2789 81.843C34.7075 81.7338 38.9735 81.4425 39.6739 81.3242C39.9741 81.2787 40.0651 81.306 40.2652 81.4971C40.9656 82.1615 42.0571 82.1706 42.7484 81.5062C42.9758 81.2878 42.994 81.2878 43.3123 81.4243C43.9309 81.6791 44.8314 81.579 45.2407 81.1968C45.3953 81.0511 46.2958 80.8782 49.9706 80.2775C54.3913 79.5585 54.5368 79.5494 55.1281 79.6586C55.6102 79.7496 55.8285 79.7496 56.1105 79.6586C56.5289 79.5312 57.0564 79.1034 57.2474 78.7393C57.3293 78.5846 57.5294 78.439 57.8114 78.3298C58.0479 78.2388 58.5209 78.0294 58.8574 77.8656C59.5578 77.5197 59.667 77.5015 59.9763 77.7018C60.7221 78.1932 61.0587 76.7734 60.3674 76.0271C60.1036 75.754 59.8853 75.7722 59.6124 76.0908C59.385 76.3456 59.3668 76.3456 58.1025 76.4002C56.9655 76.4457 56.7836 76.4275 56.538 76.2819C55.8376 75.8723 55.0189 75.9816 54.3549 76.5459L53.9729 76.8826L45.2953 78.2843L44.9042 78.1022C44.1947 77.7837 43.3578 77.9202 42.8121 78.439C42.6301 78.6119 42.5301 78.6483 42.4482 78.5846C42.3846 78.53 42.1481 78.439 41.9298 78.3753C41.2839 78.2024 40.7109 78.3935 40.1651 78.9487C39.6557 79.4675 39.7922 79.4402 36.4176 79.6859C26.4028 80.414 17.6616 79.8679 11.7219 78.1386C7.89244 77.0282 5.2546 75.3536 4.30861 73.4422C4.00844 72.8233 3.96296 72.6413 3.91748 71.8859C3.73556 68.3727 6.56442 65.4238 13.3137 62.0926C15.3421 61.0823 16.3608 60.6181 16.3608 60.6818C16.3608 60.7092 16.279 60.8912 16.1698 61.0914C15.8878 61.6466 15.6332 62.7661 15.6332 63.4396C15.6423 66.2338 17.6161 68.6821 21.3 70.466L22.4643 71.0212L21.3636 71.8404C20.0902 72.7869 19.881 73.0509 19.9356 73.6334C20.0174 74.3706 20.3904 74.68 21.682 75.0532C23.6377 75.6175 26.1573 75.9088 29.8229 75.9816C33.9798 76.0635 36.9451 75.845 39.1737 75.2807C41.0656 74.7984 41.7024 74.316 41.6205 73.4331C41.575 72.8961 41.4931 72.8051 40.1651 71.8039L39.0918 71.003L39.6648 70.7573C41.3749 70.02 42.7302 69.1281 43.8308 68.0086C45.3044 66.5068 45.9229 65.1507 45.9229 63.4123C45.9229 62.1381 45.4772 60.9549 44.5494 59.7262C43.9036 58.8706 43.3487 58.3701 41.2839 56.8319C38.9463 55.0935 37.9184 53.9558 37.0998 52.2356C36.5995 51.1707 36.5995 51.1889 37.2362 50.8158C38.0912 50.3243 44.2765 46.5835 45.7865 45.6461C48.7245 43.8349 51.144 41.9417 53.2452 39.8393C55.2736 37.8005 56.4197 36.2897 57.4203 34.3328C58.3845 32.4488 58.7847 30.9471 58.7847 29.2724C58.7847 27.9982 58.63 27.3155 58.148 26.3326C57.5294 25.113 56.1013 24.039 54.5186 23.6203C53.6818 23.4019 52.0354 23.3564 51.0622 23.5202C49.7068 23.7568 48.206 24.312 46.8962 25.0492C46.5505 25.2495 46.1503 25.4042 46.0048 25.4042C45.3862 25.4042 44.8223 25.8411 44.6949 26.4145C44.6313 26.6784 44.6131 26.6875 44.2765 26.6329C43.8217 26.551 43.9127 26.4873 41.3931 28.5807C39.3556 30.2644 39.3192 30.2917 38.828 30.3373C38.3641 30.3828 38.3095 30.4192 37.782 30.9653C37.4818 31.2838 36.8269 32.1212 36.3357 32.822C35.8445 33.5228 35.4079 34.1326 35.3624 34.1781C35.326 34.2236 35.0532 34.0962 34.753 33.896C34.4619 33.6957 33.9525 33.4227 33.6251 33.2771L33.0429 33.0222L33.4614 32.2031V18.3323L33.2521 17.9136L33.0338 17.495L33.4432 17.3948C34.0344 17.2492 34.9167 16.8305 35.2715 16.5211C35.6717 16.1934 35.9355 15.6018 35.8627 15.2287C35.8263 15.0739 35.6717 14.7827 35.4989 14.5916L35.1987 14.2366L36.9451 14.182C38.7825 14.1365 39.2464 14.0546 40.1015 13.6177C40.5744 13.372 40.911 13.0261 41.484 12.207C42.1117 11.3059 42.139 11.2331 41.9752 10.9691L41.8297 10.7507L37.218 10.7325L32.6154 10.7052L32.4517 10.2501C32.2334 9.61301 32.2334 9.59481 32.6336 9.39457C33.4614 8.9668 34.0071 7.97472 33.8343 7.20109C33.7342 6.76422 33.3613 6.18172 33.0338 5.96328L32.8064 5.81765L33.3067 5.5264C33.898 5.19875 34.5438 4.60714 34.9076 4.07015C35.1441 3.72429 35.8263 2.25894 35.8263 2.08601C35.8263 2.04961 33.5523 2.0132 30.7689 2.0132H25.7206L25.7752 2.21344ZM27.3579 3.26922C27.9492 4.07016 28.5677 4.65265 29.2408 5.03492C29.8684 5.38988 29.7229 5.48089 28.977 5.19875C28.3858 4.98031 27.649 4.3523 27.3215 3.7971C27.1123 3.43304 26.794 2.6503 26.8576 2.6503C26.8758 2.6503 27.1032 2.93246 27.3579 3.26922ZM29.168 6.35465C28.8588 6.6732 28.7132 7.05547 28.7132 7.52875C28.7132 8.02023 28.9043 8.3752 29.3863 8.79387C29.7047 9.07601 29.732 9.12152 29.5501 9.06691C28.8861 8.87578 28.4222 8.35699 28.3221 7.70168C28.2493 7.2375 28.5586 6.60039 28.9952 6.31824C29.4045 6.04519 29.45 6.05429 29.168 6.35465ZM32.5518 6.33643C33.334 6.73691 33.2431 7.92922 32.4335 7.92922C31.6785 7.92922 31.1692 6.92805 31.6603 6.40925C31.8877 6.16351 32.1788 6.1453 32.5518 6.33643ZM29.8502 10.3138C29.8957 10.6597 29.8866 10.7507 29.7775 10.7507C29.7138 10.7507 29.6319 10.7143 29.6046 10.6779C29.5592 10.6051 29.732 9.80413 29.7775 9.85875C29.7866 9.87695 29.8229 10.0772 29.8502 10.3138ZM22.1368 12.8896C22.8918 13.2263 23.7468 13.2809 29.732 13.3537C37.3817 13.4448 38.4824 13.5085 33.6524 13.5904C28.3858 13.6905 23.7923 13.6814 23.1556 13.5722C22.0277 13.3902 21.0544 12.7166 20.5086 11.7428C20.3631 11.4879 20.454 11.5425 20.9816 12.0522C21.3727 12.4254 21.8185 12.753 22.1368 12.8896ZM33.9162 14.4823C34.4255 14.6189 34.6166 14.8009 34.4983 15.0011C34.3346 15.2742 33.7524 15.4107 32.6427 15.4562C31.533 15.5108 30.5597 15.347 30.2868 15.0739C30.0776 14.8737 30.3869 14.6007 30.9509 14.4914C31.2055 14.4368 31.4966 14.3731 31.5967 14.3549C31.8877 14.2821 33.5614 14.3731 33.9162 14.4823ZM26.8122 14.9192C26.5302 15.4107 26.6212 15.6837 27.2124 16.066C27.4671 16.2389 28.0219 16.512 28.4404 16.6667C28.8497 16.8305 29.1771 16.9853 29.1589 17.0035C29.1317 17.0217 28.8406 16.9944 28.504 16.9398C26.8031 16.6667 25.8571 15.6109 26.6302 14.8373C26.9941 14.4823 27.0487 14.5005 26.8122 14.9192ZM31.6513 18.2777C31.8514 18.4597 32.1061 18.7783 32.2152 18.9785C32.4153 19.3517 32.4153 19.3608 32.4153 25.2677V31.1837L32.1515 31.6661C31.915 32.0848 31.624 32.3851 31.2055 32.6308C31.1328 32.6764 31.1783 32.5307 31.2965 32.3123L31.5057 31.9118L31.533 25.4315C31.5603 18.8147 31.5603 18.8602 31.2328 18.0957C31.1328 17.859 31.2419 17.9045 31.6513 18.2777ZM29.3136 18.3505C28.9406 18.9148 28.9224 19.3335 28.977 25.386C29.0225 30.7377 29.0407 31.2201 29.1953 31.6115C29.4227 32.1849 29.3409 32.1667 29.0407 31.566C28.8042 31.1109 28.7951 31.0017 28.7132 28.9993C28.6678 27.8434 28.6496 25.2677 28.6587 23.2653C28.6859 20.1526 28.7132 19.561 28.8497 19.1696C29.0043 18.7146 29.3227 18.123 29.4136 18.123C29.4409 18.123 29.3954 18.2231 29.3136 18.3505ZM53.9911 24.0936C56.065 24.5214 57.3475 25.5589 57.8933 27.2518C58.5209 29.2178 58.148 31.7844 56.9018 34.0689C56.2924 35.1884 56.1468 35.3067 56.6016 34.3237C57.9933 31.3566 58.2116 28.6808 57.2474 26.7057C56.538 25.2677 55.0189 24.3848 52.7358 24.0936L51.7898 23.9753L52.5448 23.9571C52.9632 23.9571 53.609 24.0117 53.9911 24.0936ZM53.9092 25.4497C54.5914 25.6135 55.4373 26.0231 55.874 26.4145C56.5652 27.0152 57.011 28.4623 56.8927 29.7092C56.6471 32.3214 55.0553 35.2248 52.2901 38.0918C50.5346 39.9121 48.5608 41.5322 46.1503 43.1522C44.604 44.1898 36.3721 49.1593 36.1993 49.1593C36.1447 49.1593 36.0992 49.0774 36.0992 48.9863C36.0992 48.8862 36.081 48.7497 36.0446 48.6769C36.0082 48.5768 36.0992 48.5313 36.4358 48.4949C36.7723 48.4585 36.9269 48.3856 37.1271 48.1581C37.3817 47.8669 37.3908 47.8395 37.3545 47.0113C37.3181 46.0374 37.1907 45.8099 36.5904 45.7098L36.2538 45.6552L36.8815 45.2365C37.8638 44.5812 38.6552 43.8895 38.7916 43.5527C38.9554 43.1614 38.9554 42.5697 38.7825 42.2512C38.6097 41.9144 37.9184 41.2955 37.027 40.6857L36.2993 40.1851L36.5267 39.7483C37.0361 38.7471 37.118 37.4001 36.7359 36.3898C36.5631 35.9438 36.5631 35.9074 36.7086 35.7982C36.7905 35.7436 36.8906 35.689 36.936 35.689C36.9724 35.689 37.7547 35.3249 38.6734 34.888C40.5744 33.9688 41.0565 33.6138 41.1657 33.0222C41.2385 32.6582 41.3567 32.5398 43.2305 30.9835C45.9866 28.6808 45.741 28.9447 45.741 28.4077C45.741 27.9618 45.7501 27.9526 46.0139 27.9526C46.4141 27.9526 46.787 27.7342 47.0053 27.3701C47.3419 26.8332 49.5977 25.7774 51.1076 25.4588C51.8899 25.2859 53.1997 25.2859 53.9092 25.4497ZM45.8138 26.733C45.8683 26.8423 46.0502 26.9879 46.214 27.0698L46.5141 27.2245H46.2595C46.1139 27.2245 45.932 27.1881 45.841 27.1335C45.6045 27.0061 45.4317 26.551 45.5136 26.2507L45.741 26.1551L45.65 26.2689C45.6773 26.4145 45.7592 26.6238 45.8138 26.733ZM38.8917 31.0836C38.7189 31.5296 39.3283 32.4033 40.0378 32.731C40.3925 32.9039 40.438 32.9403 40.2834 32.9858C39.8013 33.1132 39.0645 32.6673 38.7916 32.103C38.6188 31.7389 38.6006 31.2201 38.7552 31.0654C38.9008 30.9198 38.9463 30.9289 38.8917 31.0836ZM23.1919 31.3566C23.2738 31.4112 23.8923 32.1303 24.5745 32.9585C25.4569 34.0416 25.7752 34.4876 25.7115 34.5695C25.6479 34.6514 25.3295 34.4421 24.4745 33.7503C22.819 32.4033 22.3642 31.9482 22.3642 31.6024C22.3642 31.1655 22.7553 31.0472 23.1919 31.3566ZM37.882 32.1121C37.4818 32.9039 36.5631 34.1053 36.0537 34.5058C35.8263 34.6787 36.3266 33.7776 36.8724 33.004C37.3363 32.3487 38.0185 31.566 38.073 31.6297C38.0912 31.6479 38.0094 31.8663 37.882 32.1121ZM21.8366 33.541C22.9373 33.9506 25.1749 35.1793 25.0566 35.3067C24.9293 35.4341 22.4006 34.2236 21.5911 33.6411C21.0544 33.268 21.0817 33.2498 21.8366 33.541ZM27.8946 34.3237C26.2027 35.4341 25.4387 36.854 25.5751 38.6743L25.6206 39.3751L25.4932 38.9655C25.1749 37.9735 25.2658 36.8813 25.7388 35.9438C26.0572 35.3249 26.8758 34.5786 27.6399 34.2054C28.595 33.7412 28.7132 33.7867 27.8946 34.3237ZM33.5068 34.2418C34.1981 34.4967 35.0895 35.3431 35.4625 36.0712C35.8263 36.8176 35.8445 37.4638 35.4989 37.8187C35.2988 38.0099 35.1714 38.0554 34.7894 38.0554C33.4886 38.0554 31.8241 36.3989 31.8241 35.0974C31.8241 34.1417 32.4244 33.8323 33.5068 34.2418ZM30.5051 34.4512C31.0782 34.6878 31.1874 35.334 30.7416 35.7891C30.2868 36.2351 29.641 36.1258 29.4045 35.5433C29.2954 35.2794 29.2954 35.1884 29.3954 34.9335C29.541 34.6059 29.6956 34.4512 29.9594 34.3874C30.0594 34.3692 30.1504 34.3419 30.1686 34.3328C30.1777 34.3328 30.3323 34.3783 30.5051 34.4512ZM25.3568 41.3228C24.3471 42.0237 23.9105 42.506 23.9105 42.9156C23.9105 43.1614 23.9924 43.2979 24.3926 43.6619C24.6473 43.9077 25.2022 44.3537 25.6206 44.6449C26.0299 44.9271 26.3665 45.1819 26.3665 45.2092C26.3665 45.2911 25.6934 44.9635 24.9839 44.5448C24.5836 44.299 24.1016 43.935 23.9105 43.7165C23.3375 43.0703 23.3557 42.5971 24.0015 41.969C24.3653 41.6141 25.7934 40.7858 26.039 40.7858C26.0845 40.7858 25.7752 41.0316 25.3568 41.3228ZM36.4449 41.341C37.0816 41.7688 37.6455 42.3422 37.6455 42.5698C37.6455 42.8155 37.4272 43.0066 36.9633 43.1614C36.4358 43.3434 33.3067 43.3252 32.2789 43.134C31.251 42.9338 30.9509 42.8246 31.0873 42.6608C31.2146 42.5151 31.8423 42.3786 33.2794 42.1966C34.5802 42.0237 35.3988 41.7415 35.7354 41.341C35.8627 41.1954 35.9719 41.068 35.9901 41.068C36.0082 41.0589 36.2084 41.1863 36.4449 41.341ZM25.848 46.2195C25.7843 46.2377 25.6479 46.4015 25.5387 46.5744C25.3113 46.9476 25.3477 47.3663 25.6479 47.7394C25.8662 48.0125 25.7115 48.0671 25.4023 47.8122C24.993 47.4846 24.8838 46.9112 25.1476 46.5289C25.3022 46.3196 25.8298 46.0374 25.9117 46.1285C25.9389 46.1558 25.9117 46.2013 25.848 46.2195ZM35.6353 46.4652C35.8627 46.5198 36.0537 46.6017 36.0537 46.6563C36.0537 46.8839 35.3078 47.0113 33.8707 47.0113C31.9696 47.0204 30.9781 46.7929 31.7058 46.5107C32.388 46.2559 34.6802 46.2286 35.6353 46.4652ZM27.4125 48.8589C27.0396 51.0342 26.0572 53.5007 25.0657 54.7294C24.6018 55.2937 24.7019 55.3119 25.3386 54.7567C26.5211 53.7374 27.9947 51.4529 28.786 49.405L29.1226 48.5222H32.0242C33.616 48.5222 34.9167 48.5404 34.9167 48.5586C34.9167 48.7042 35.226 50.2151 35.3351 50.5973L35.4716 51.0888L34.8894 51.6167C34.3346 52.1355 33.5705 53.1185 33.6615 53.2095C33.716 53.2732 34.7985 52.363 35.2078 51.9079C35.5716 51.4984 35.6444 51.462 35.6444 51.6349C35.6444 51.8442 36.5267 53.5826 36.9269 54.1833C37.6 55.1936 38.8553 56.3768 40.7109 57.7785C42.7029 59.2711 43.4033 59.9173 43.9582 60.7911C44.704 61.9561 44.986 63.2303 44.7404 64.3862C44.3584 66.252 42.5665 68.136 39.965 69.4102C37.3908 70.6663 34.2891 71.3034 30.778 71.3034C26.4574 71.3034 22.7371 70.3204 19.9083 68.4273C19.0715 67.8721 17.8708 66.6707 17.4706 65.9881C16.2517 63.922 16.561 61.7831 18.3529 59.8718C18.7895 59.4167 19.6991 58.6522 20.7997 57.824C23.4194 55.8671 24.4563 54.7567 25.3568 52.9364C25.8844 51.8715 26.2027 50.8795 26.4756 49.5051L26.6666 48.5222H27.4671L27.4125 48.8589ZM6.00957 66.1519C4.65426 67.4807 3.91748 68.7094 3.52635 70.2749C3.27166 71.267 3.31714 72.5867 3.62641 73.4149C3.89929 74.1249 4.50872 74.9804 5.09996 75.4901C7.70143 77.6745 12.1858 79.1944 18.6348 80.0682C20.072 80.2593 20.1357 80.2775 19.317 80.232C14.5052 79.9772 9.45696 78.6847 6.52804 76.9554C4.92714 76.0089 4.01754 75.1078 3.45358 73.9337C2.2802 71.4308 3.47178 67.9904 6.30973 65.715C6.6099 65.4693 6.86459 65.2781 6.88278 65.269C6.90098 65.269 6.50985 65.6695 6.00957 66.1519ZM24.1106 71.5309C24.238 71.5855 24.1106 71.7129 23.5376 72.1407C22.3096 73.0418 22.0913 73.4422 22.6826 73.6971C23.1192 73.8791 24.8383 74.1613 26.5939 74.3342C28.3676 74.5071 33.9434 74.6163 33.7342 74.4707C33.6615 74.4161 33.2885 74.3706 32.9065 74.3706C31.2328 74.3706 26.5302 73.7699 26.1391 73.515C25.7115 73.2329 25.7388 72.5958 26.1845 72.259C26.4028 72.1043 26.4756 72.0952 27.3034 72.2044L28.1857 72.3136L27.9765 72.5321L27.7763 72.7505L28.031 72.969C28.4585 73.333 29.1135 73.4786 30.5961 73.5241C32.6063 73.597 34.0071 73.2875 34.0799 72.7596C34.0981 72.6413 34.0253 72.5139 33.898 72.4229C33.7888 72.3409 33.7433 72.2772 33.7979 72.2772C34.089 72.2772 36.1629 71.8768 36.8997 71.6856C37.3726 71.5582 37.7911 71.4581 37.8365 71.4581C37.9821 71.4581 37.9275 71.6128 37.7638 71.6674C37.6728 71.6947 36.9087 71.9678 36.0537 72.2681C34.5438 72.8051 34.5256 72.8233 35.0986 72.7687C35.8536 72.705 38.5097 72.3774 38.7643 72.3227C38.9099 72.2863 39.1918 72.4411 39.7649 72.8688C40.2015 73.1965 40.5563 73.5059 40.5563 73.5515C40.5563 73.8154 38.637 74.3615 36.8724 74.5981C33.8252 75.0168 28.4676 75.0077 25.093 74.589C23.1101 74.3433 21.0453 73.8245 21.0453 73.5697C21.0453 73.4149 23.6377 71.4581 23.8196 71.4672C23.8923 71.4672 24.0288 71.4945 24.1106 71.5309ZM60.1855 76.3001C60.2491 76.3638 60.2946 76.5004 60.2946 76.6187C60.2946 76.919 59.9581 76.9008 59.8762 76.6096C59.7852 76.2455 59.9672 76.0817 60.1855 76.3001ZM56.4015 76.8917C56.8017 77.2558 56.829 77.9384 56.4379 78.1113C56.0104 78.3116 55.3828 77.7382 55.3828 77.1557C55.3828 76.6915 56.0013 76.5277 56.4015 76.8917ZM59.2031 76.8007C59.3759 76.9554 58.3572 77.1466 57.8205 77.0556C57.393 76.9827 57.4658 76.8371 57.9933 76.737C58.3208 76.6733 59.103 76.7097 59.2031 76.8007ZM52.7722 77.9657C51.1895 78.3662 46.7779 79.0124 46.4414 78.8941C46.2777 78.8395 47.8422 78.4936 49.6159 78.1932C51.3987 77.8838 52.3993 77.7655 53.1088 77.7564H53.609L52.7722 77.9657ZM44.704 78.7757C45.0952 79.1671 45.1406 79.6586 44.795 79.877C44.604 80.0045 44.5403 80.0045 44.2583 79.8861C43.7126 79.6586 43.4852 78.9942 43.8308 78.6483C44.0946 78.3844 44.3493 78.4208 44.704 78.7757ZM42.2026 79.2763C42.3936 79.4675 42.4664 79.6313 42.4664 79.8679C42.4664 80.4868 41.9298 80.6689 41.4659 80.2047C41.1202 79.8679 41.0383 79.5312 41.2294 79.2399C41.4386 78.9214 41.857 78.9305 42.2026 79.2763Z" stroke="#C7C7C7" stroke-width="4" mask="url(#path-1-outside-1_3_2)"/>
<path d="M33.6111 51.5891C33.4205 51.7372 33.1028 52.0149 32.9213 52.2093C32.531 52.6259 31.7414 53.8293 31.8049 53.9034C31.8866 53.9774 33.1119 52.6999 33.5203 52.1075C34.1556 51.2003 34.1556 51.1725 33.6111 51.5891Z" stroke="#C7C7C7" stroke-width="4" mask="url(#path-1-outside-1_3_2)"/>
<path d="M31.1752 52.7529C30.5706 53.3931 29.8543 54.5158 29.9752 54.6364C30.0868 54.7477 31.2775 53.3189 31.7427 52.5024C31.8822 52.2611 31.9566 52.0663 31.9101 52.0663C31.8543 52.0663 31.5287 52.3725 31.1752 52.7529Z" stroke="#C7C7C7" stroke-width="4" mask="url(#path-1-outside-1_3_2)"/>
<path d="M29.5181 53.4217C29.0314 53.934 28.1422 55.3913 28.2545 55.4973C28.3106 55.5591 28.9097 54.8967 29.3309 54.3049C29.6772 53.8192 30.1358 52.9801 30.0797 52.9271C30.0516 52.9006 29.8082 53.1303 29.5181 53.4217Z" stroke="#C7C7C7" stroke-width="4" mask="url(#path-1-outside-1_3_2)"/>
<path d="M27.8792 54.1258C27.2492 54.8839 26.5111 56.3288 26.6731 56.4805C26.7001 56.5072 26.8891 56.2932 27.0962 56.0078C27.4922 55.4548 28.3202 53.8671 28.2392 53.7869C28.2212 53.7601 28.0502 53.9117 27.8792 54.1258Z" stroke="#C7C7C7" stroke-width="4" mask="url(#path-1-outside-1_3_2)"/>
<path d="M26.1807 55.1399C25.6394 55.8446 24.9177 57.4323 25.0792 57.584C25.1456 57.6464 25.7629 56.6741 26.0857 55.9962C26.3611 55.4342 26.589 54.7652 26.513 54.7652C26.494 54.7652 26.3421 54.9347 26.1807 55.1399Z" stroke="#C7C7C7" stroke-width="4" mask="url(#path-1-outside-1_3_2)"/>
<path d="M24.6217 56.1381C24.0872 56.9139 23.5139 58.4008 23.5916 58.7979C23.6402 58.9919 24.4856 57.3387 24.6897 56.6553C24.8743 56.0458 24.8452 55.8149 24.6217 56.1381Z" stroke="#C7C7C7" stroke-width="4" mask="url(#path-1-outside-1_3_2)"/>
<path d="M22.8868 57.6229C22.7414 57.9136 22.5505 58.3768 22.4778 58.6584C22.3234 59.1579 22.3234 59.167 21.869 59.2487C21.4691 59.3305 21.4237 59.3214 21.4691 59.1942C21.4873 59.1125 21.5509 58.8582 21.5964 58.6129C21.6963 58.0589 21.56 58.1588 21.2056 58.8945C20.9511 59.4213 20.9421 59.4304 20.3241 59.6302C19.7879 59.8028 19.6153 59.9209 19.0337 60.4931C18.5611 60.9654 18.2612 61.3559 18.025 61.8191C17.7342 62.4095 17.6978 62.5548 17.6978 63.1725C17.7069 64.435 18.2703 65.643 19.3881 66.7692C21.2147 68.6039 24.259 69.8664 28.103 70.366C29.1844 70.5022 32.2378 70.5022 33.3738 70.366C39.1716 69.6484 43.2428 67.0326 43.779 63.6811C43.9608 62.5367 43.5427 61.5194 42.4159 60.3568C41.8161 59.7392 41.4617 59.5666 40.3439 59.3214L40.0531 59.2578L40.4166 60.0208C40.6165 60.4386 40.8528 60.7928 40.9346 60.811C41.0437 60.8291 41.0527 60.8564 40.9619 60.9109C40.8801 60.9654 40.8892 61.1289 41.0073 61.6829C41.2254 62.6457 41.1618 64.0989 40.871 64.8619C40.6075 65.5521 40.144 66.2969 39.6533 66.7965C39.0262 67.4595 37.8721 68.2134 36.9815 68.5494C36.6907 68.6584 36.7089 68.6403 37.6358 67.95C39.8714 66.2697 40.5529 63.9627 39.4533 61.7919L39.2262 61.3468L38.6173 61.4104C38.2811 61.4468 37.9812 61.5012 37.9448 61.5285C37.9085 61.5648 37.9176 61.7556 37.963 61.9554C38.0084 62.1552 38.0448 62.5639 38.0448 62.8637V63.4086L37.863 62.8637C37.5904 62.0008 37.3178 61.5921 37.0542 61.6102C35.3367 61.7828 34.4916 61.8282 32.0107 61.8827C29.03 61.9372 26.7944 61.8464 24.468 61.583C23.2048 61.4468 21.2419 61.1016 21.2419 61.0289C21.2419 61.0017 21.4146 61.0108 21.6327 61.038C22.5505 61.1924 24.8315 61.365 27.1034 61.4649C30.3476 61.6012 37.0542 61.474 37.0542 61.2742C37.0542 61.2378 36.818 60.929 36.5362 60.593C35.891 59.83 34.6006 58.7764 34.2189 58.6947C33.7646 58.6039 28.4574 58.6311 26.7581 58.731C25.8948 58.7855 24.6679 58.8854 24.0227 58.9581C23.3775 59.0398 22.8323 59.0762 22.805 59.058C22.7868 59.0308 22.8504 58.7583 22.9595 58.4404C23.1594 57.8137 23.2957 57.0961 23.2048 57.0961C23.1776 57.0961 23.0322 57.3323 22.8868 57.6229ZM21.0693 61.8736C21.4691 62.0735 21.7872 62.8001 21.7872 63.4994C21.7872 64.2533 21.6418 64.7074 21.2874 65.0617C20.4332 65.9154 19.4154 64.8982 19.5335 63.3269C19.588 62.6638 19.8516 62.1098 20.2241 61.8827C20.5331 61.692 20.724 61.692 21.0693 61.8736ZM23.8955 62.3096C24.1045 62.464 24.2499 62.8637 24.1772 63.0635C24.15 63.1543 24.0409 63.3178 23.9409 63.4268C23.4593 63.9717 22.5324 63.3541 22.7959 62.6638C22.914 62.3459 23.1321 62.1915 23.4684 62.1915C23.6229 62.1915 23.8137 62.2369 23.8955 62.3096Z" stroke="#C7C7C7" stroke-width="4" mask="url(#path-1-outside-1_3_2)"/>
<path d="M36.7069 58.8554C36.7069 58.8736 36.9047 59.2634 37.1474 59.7349C37.3901 60.2064 37.6329 60.7413 37.6958 60.9317L37.8037 61.2672L38.3971 61.2128C38.7297 61.1766 39.0174 61.1403 39.0354 61.1222C39.0534 61.104 38.9185 60.8955 38.7477 60.6597C38.1543 59.8528 36.7069 58.5653 36.7069 58.8554Z" stroke="#C7C7C7" stroke-width="4" mask="url(#path-1-outside-1_3_2)"/>
<path d="M81.9683 2.70393C81.8449 4.013 81.7831 5.39617 81.7831 21.7778C81.7831 27.7797 82.8942 34.9055 85.1165 43.1551C85.0424 43.2045 84.9436 43.2416 84.8202 43.2663C84.1782 43.2663 83.6967 43.081 83.3757 42.7105C82.5362 40.9322 81.6226 38.314 80.635 34.8561C78.956 35.1278 77.3881 35.2637 75.9313 35.2637C74.4992 35.2637 73.4992 35.239 72.9313 35.1896C71.7708 37.6101 70.4745 40.1171 69.0424 42.7105C68.598 43.081 68.1412 43.2663 67.672 43.2663C67.2029 43.2663 66.9683 43.2292 66.9683 43.1551C67.9066 41.3027 69.1412 38.5487 70.672 34.8932C70.3757 34.8438 69.9066 34.745 69.2646 34.5968C68.8942 34.2016 68.7091 33.6582 68.7091 32.9666C68.7091 32.7937 68.7461 32.7073 68.8202 32.7073C68.8942 32.7073 69.0424 32.7443 69.2646 32.8184C69.7831 32.9666 70.4745 33.0901 71.3387 33.1889C73.7091 27.3846 75.351 7.75496 76.2646 4.14885L80.3387 2C81.03 2 81.5733 2.23464 81.9683 2.70393ZM73.8202 33.3001C76.1412 33.2507 78.2029 32.9666 80.0054 32.4479C78.993 28.6195 79.5956 10.8394 79.324 8.14716C77.9166 12.025 75.2523 30.0891 73.8202 33.3001Z" stroke="#C7C7C7" stroke-width="4" mask="url(#path-1-outside-1_3_2)"/>
<path d="M99.5221 42.7105C99.8678 39.3761 100.041 36.7333 100.041 34.782C100.041 30.9042 99.3122 28.9653 97.8555 28.9653C96.769 28.9653 95.6332 29.8668 94.4481 31.6699C93.2876 33.473 92.3246 36.017 91.5592 39.302H91.5221C91.3987 39.9195 91.1641 40.9939 90.8184 42.5253C90.6703 42.6982 90.4234 42.8464 90.0777 42.9699C89.7567 43.0934 89.4851 43.1551 89.2629 43.1551C89.0653 43.1551 88.9666 43.0934 88.9666 42.9699C90.0777 37.8077 90.6332 32.8802 90.6332 28.1873C90.6332 23.4697 90.1518 19.4807 89.1888 16.2204L90.1147 15.6276L93.0777 17.0355C93.3246 18.6904 93.4481 20.6663 93.4481 22.9634C93.4481 25.2357 93.2505 27.9279 92.8555 31.0401C93.8925 29.0641 95.0283 27.4834 96.2629 26.2978C97.5221 25.1122 98.7073 24.5194 99.8184 24.5194C101.794 24.5194 102.781 25.9149 102.781 28.706C102.781 31.003 102.572 33.6705 102.152 36.7086C101.732 39.7219 101.485 41.5867 101.411 42.303C101.065 42.6488 100.522 42.8217 99.7814 42.8217C99.6085 42.8217 99.5221 42.7846 99.5221 42.7105Z" stroke="#C7C7C7" stroke-width="4" mask="url(#path-1-outside-1_3_2)"/>
<path d="M108.594 2.74098L111.557 4.14885C111.828 5.9766 111.564 20.8516 111.564 23.0004C111.564 25.1246 111.441 27.3969 111.194 29.8174C110.675 34.7079 109.935 38.9439 108.972 42.5253C108.824 42.6982 108.564 42.8464 108.194 42.9699C107.824 43.0934 107.527 43.1551 107.305 43.1551C107.083 43.1551 106.972 43.0934 106.972 42.9699C108.132 38.03 108.713 33.1519 108.713 28.3355C108.713 23.5191 108.631 6.59409 107.668 3.33377L108.594 2.74098Z" stroke="#C7C7C7" stroke-width="4" mask="url(#path-1-outside-1_3_2)"/>
<path d="M125.46 25.0381L128.46 23.7414L129.349 24.2601C128.534 26.6559 128.127 29.4223 128.127 32.5591C128.127 33.8928 128.238 35.7453 128.46 38.1164C128.682 40.4876 128.892 42.093 129.09 42.9328C129.09 43.0069 128.905 43.044 128.534 43.044C128.164 43.044 127.806 42.8711 127.46 42.5253C126.67 40.6975 126.04 38.0053 125.571 34.4486C124.534 36.9185 123.287 38.9315 121.831 40.4876C120.398 42.0436 119.102 42.8217 117.942 42.8217C115.719 42.8217 114.608 41.4262 114.608 38.6351C114.608 37.0297 114.929 35.486 115.571 34.004C116.213 32.522 117.077 31.2253 118.164 30.1138C120.337 27.9156 122.769 26.2237 125.46 25.0381ZM119.942 38.3758C120.732 38.3758 121.608 37.7459 122.571 36.4863C123.559 35.2019 124.435 33.3989 125.201 31.0771C125.176 30.7313 125.164 30.0644 125.164 29.0765C125.164 28.0885 125.176 27.3599 125.201 26.8906C123.077 28.1008 121.361 29.3976 120.053 30.7807C118.744 32.1392 118.09 33.7446 118.09 35.5971C118.09 37.4496 118.707 38.3758 119.942 38.3758Z" stroke="#C7C7C7" stroke-width="4" mask="url(#path-1-outside-1_3_2)"/>
<path d="M72.8942 70.4184L72.8572 69.5662C72.2646 69.4921 71.5239 69.3439 70.635 69.1216C70.2646 68.7758 70.0794 68.2695 70.0794 67.6026C70.0794 67.3803 70.1165 67.2692 70.1905 67.2692C70.2893 67.2692 70.4498 67.2939 70.672 67.3433C71.1905 67.5162 71.9066 67.652 72.8202 67.7508C72.7214 65.8737 72.5115 63.9842 72.1905 62.0823C71.8942 60.1558 71.6226 58.6985 71.3757 57.7105L71.0054 56.2285L74.2276 54.7095L75.1905 55.3023C75.5609 57.5006 75.7461 59.6741 75.7461 61.823C75.7461 63.9718 75.6844 65.9725 75.5609 67.8249C78.8942 67.6767 81.6597 67.1086 83.8572 66.1207C83.8325 65.602 83.8202 64.4288 83.8202 62.601C83.8202 60.7485 84.0547 58.3156 84.5239 55.3023L85.4868 54.7095L88.635 56.2285C87.4992 59.1431 86.9313 63.626 86.9313 69.6774C86.9313 74.1727 87.1165 77.927 87.4868 80.9403C87.4868 81.0144 87.3881 81.0514 87.1905 81.0514C86.5486 81.0514 86.0671 80.8662 85.7461 80.4957C84.8572 75.9757 84.2893 72.135 84.0424 68.9734C81.4251 69.5168 79.0177 69.7885 76.8202 69.7885H75.4128C75.1412 72.6536 74.6597 76.161 73.9683 80.3105C73.7955 80.5081 73.5115 80.6686 73.1165 80.7921C72.7461 80.9403 72.4251 81.0144 72.1535 81.0144C71.9066 81.0144 71.7831 80.9526 71.7831 80.8291L71.8942 80.4216C72.5609 77.9764 72.8942 74.6419 72.8942 70.4184Z" stroke="#C7C7C7" stroke-width="4" mask="url(#path-1-outside-1_3_2)"/>
<path d="M106.055 62.8603L104.277 64.898C105.659 66.5776 106.351 68.6894 106.351 71.2334C106.351 74.8148 105.203 77.5688 102.906 79.4954C101.697 80.5081 100.203 81.0144 98.4249 81.0144C96.6718 81.0144 95.1656 80.3105 93.9064 78.9026C92.6718 77.4947 92.0545 75.5558 92.0545 73.0859C92.0545 70.4924 93.0175 68.1337 94.9434 66.0095C95.9558 64.898 97.3755 63.9718 99.2027 63.2308C101.055 62.4898 103.203 62.0206 105.647 61.823L106.055 62.8603ZM98.9805 77.6429C100.487 77.6429 101.734 77.0008 102.721 75.7164C103.734 74.432 104.24 73.0982 104.24 71.7151C104.24 68.7264 103.561 66.4171 102.203 64.7869C100.301 65.108 98.6965 65.9601 97.3879 67.3433C96.0792 68.7264 95.4249 70.2949 95.4249 72.0485C95.4249 73.8022 95.7335 75.173 96.3508 76.161C96.9928 77.1489 97.8694 77.6429 98.9805 77.6429Z" stroke="#C7C7C7" stroke-width="4" mask="url(#path-1-outside-1_3_2)"/>
<path d="M123.705 62.8603L121.927 64.898C123.31 66.5776 124.001 68.6894 124.001 71.2334C124.001 74.8148 122.853 77.5688 120.557 79.4954C119.347 80.5081 117.853 81.0144 116.075 81.0144C114.322 81.0144 112.816 80.3105 111.557 78.9026C110.322 77.4947 109.705 75.5558 109.705 73.0859C109.705 70.4924 110.668 68.1337 112.594 66.0095C113.606 64.898 115.026 63.9718 116.853 63.2308C118.705 62.4898 120.853 62.0206 123.298 61.823L123.705 62.8603ZM116.631 77.6429C118.137 77.6429 119.384 77.0008 120.372 75.7164C121.384 74.432 121.89 73.0982 121.89 71.7151C121.89 68.7264 121.211 66.4171 119.853 64.7869C117.952 65.108 116.347 65.9601 115.038 67.3433C113.73 68.7264 113.075 70.2949 113.075 72.0485C113.075 73.8022 113.384 75.173 114.001 76.161C114.643 77.1489 115.52 77.6429 116.631 77.6429Z" stroke="#C7C7C7" stroke-width="4" mask="url(#path-1-outside-1_3_2)"/>
<path d="M141.244 62.9344L140.281 66.8616C139.862 66.7628 139.43 66.7134 138.985 66.7134C137.578 66.7134 136.195 67.3309 134.837 68.5659C135.553 70.5418 136.541 72.6907 137.8 75.0124C139.084 77.3095 140.343 79.1372 141.578 80.4957V80.5328C141.578 80.8045 141.17 80.9403 140.355 80.9403C140.133 80.9403 139.985 80.9279 139.911 80.9032C138.578 79.7671 137.183 78.2357 135.726 76.3092C134.269 74.3579 133.22 72.7524 132.578 71.4928L132.541 71.4557C131.504 73.2341 130.825 75.1112 130.504 77.0872L130.355 77.2354L129.763 79.8659C129.615 80.0388 129.368 80.187 129.022 80.3105C128.701 80.434 128.454 80.4957 128.281 80.4957C128.109 80.4957 128.022 80.434 128.022 80.3105C129.059 75.4694 129.578 70.69 129.578 65.9725C129.578 61.2549 129.096 57.2659 128.133 54.0056L129.059 53.4128L132.022 54.8207C132.269 56.6731 132.392 58.822 132.392 61.2672C132.392 63.6878 132.096 66.8616 131.504 70.7888C133.75 66.2195 136.676 63.3667 140.281 62.2305L141.244 62.9344Z" stroke="#C7C7C7" stroke-width="4" mask="url(#path-1-outside-1_3_2)"/>
<path d="M154.215 62.8233L157.215 61.5266L158.103 62.0453C157.289 64.4411 156.881 67.2074 156.881 70.3443C156.881 71.678 156.992 73.5305 157.215 75.9016C157.437 78.2728 157.647 79.8782 157.844 80.718C157.844 80.7921 157.659 80.8291 157.289 80.8291C156.918 80.8291 156.56 80.6563 156.215 80.3105C155.424 78.4827 154.795 75.7905 154.326 72.2338C153.289 74.7037 152.042 76.7167 150.585 78.2728C149.153 79.8288 147.856 80.6069 146.696 80.6069C144.474 80.6069 143.363 79.2113 143.363 76.4203C143.363 74.8149 143.684 73.2711 144.326 71.7892C144.968 70.3072 145.832 69.0105 146.918 67.899C149.091 65.7008 151.523 64.0089 154.215 62.8233ZM148.696 76.161C149.486 76.161 150.363 75.5311 151.326 74.2715C152.313 72.9871 153.19 71.184 153.955 68.8623C153.931 68.5165 153.918 67.8496 153.918 66.8616C153.918 65.8737 153.931 65.145 153.955 64.6757C151.832 65.886 150.116 67.1827 148.807 68.5659C147.498 69.9244 146.844 71.5298 146.844 73.3823C146.844 75.2347 147.461 76.161 148.696 76.161Z" stroke="#C7C7C7" stroke-width="4" mask="url(#path-1-outside-1_3_2)"/>
<path d="M172.945 80.4957C173.291 77.1613 173.464 74.5185 173.464 72.5672C173.464 68.6894 172.735 66.7505 171.278 66.7505C170.192 66.7505 169.056 67.652 167.871 69.4551C166.711 71.2581 165.748 73.8022 164.982 77.0872H164.945C164.822 77.7047 164.587 78.7791 164.241 80.3105C164.093 80.4834 163.846 80.6316 163.501 80.755C163.18 80.8785 162.908 80.9403 162.686 80.9403C162.488 80.9403 162.39 80.8785 162.39 80.755C163.501 75.5929 164.056 70.6653 164.056 65.9725C164.056 61.2549 163.575 57.2659 162.612 54.0056L163.538 53.4128L166.501 54.8207C166.748 56.4755 166.871 58.4515 166.871 60.7485C166.871 63.0209 166.674 65.7131 166.278 68.8252C167.315 66.8493 168.451 65.2685 169.686 64.083C170.945 62.8974 172.13 62.3046 173.241 62.3046C175.217 62.3046 176.204 63.7001 176.204 66.4912C176.204 68.7882 175.994 71.4557 175.575 74.4938C175.155 77.5071 174.908 79.3719 174.834 80.0882C174.488 80.434 173.945 80.6069 173.204 80.6069C173.032 80.6069 172.945 80.5698 172.945 80.4957Z" stroke="#C7C7C7" stroke-width="4" mask="url(#path-1-outside-1_3_2)"/>
</g>
<defs>
<filter id="filter0_d_3_2" x="6.10352e-05" y="0" width="179.204" height="85" filterUnits="userSpaceOnUse" color-interpolation-filters="sRGB">
<feFlood flood-opacity="0" result="BackgroundImageFix"/>
<feColorMatrix in="SourceAlpha" type="matrix" values="0 0 0 0 0 0 0 0 0 0 0 0 0 0 0 0 0 0 127 0" result="hardAlpha"/>
<feOffset dx="1" dy="1"/>
<feComposite in2="hardAlpha" operator="out"/>
<feColorMatrix type="matrix" values="0 0 0 0 1 0 0 0 0 1 0 0 0 0 1 0 0 0 0.5 0"/>
<feBlend mode="normal" in2="BackgroundImageFix" result="effect1_dropShadow_3_2"/>
<feBlend mode="normal" in="SourceGraphic" in2="effect1_dropShadow_3_2" result="shape"/>
</filter>
<linearGradient id="paint0_linear_3_2" x1="89.1022" y1="2" x2="89.1022" y2="82" gradientUnits="userSpaceOnUse">
<stop stop-color="white"/>
<stop offset="0.9999" stop-color="white"/>
<stop offset="1" stop-color="#FDB73C"/>
</linearGradient>
<linearGradient id="paint1_linear_3_2" x1="89.1022" y1="2" x2="89.1022" y2="82" gradientUnits="userSpaceOnUse">
<stop stop-color="white"/>
<stop offset="0.9999" stop-color="white"/>
<stop offset="1" stop-color="#FDB73C"/>
</linearGradient>
<linearGradient id="paint2_linear_3_2" x1="89.1022" y1="2" x2="89.1022" y2="82" gradientUnits="userSpaceOnUse">
<stop stop-color="white"/>
<stop offset="0.9999" stop-color="white"/>
<stop offset="1" stop-color="#FDB73C"/>
</linearGradient>
<linearGradient id="paint3_linear_3_2" x1="89.1022" y1="2" x2="89.1022" y2="82" gradientUnits="userSpaceOnUse">
<stop stop-color="white"/>
<stop offset="0.9999" stop-color="white"/>
<stop offset="1" stop-color="#FDB73C"/>
</linearGradient>
<linearGradient id="paint4_linear_3_2" x1="89.1022" y1="2" x2="89.1022" y2="82" gradientUnits="userSpaceOnUse">
<stop stop-color="white"/>
<stop offset="0.9999" stop-color="white"/>
<stop offset="1" stop-color="#FDB73C"/>
</linearGradient>
<linearGradient id="paint5_linear_3_2" x1="89.1022" y1="2" x2="89.1022" y2="82" gradientUnits="userSpaceOnUse">
<stop stop-color="white"/>
<stop offset="0.9999" stop-color="white"/>
<stop offset="1" stop-color="#FDB73C"/>
</linearGradient>
<linearGradient id="paint6_linear_3_2" x1="89.1022" y1="2" x2="89.1022" y2="82" gradientUnits="userSpaceOnUse">
<stop stop-color="white"/>
<stop offset="0.9999" stop-color="white"/>
<stop offset="1" stop-color="#FDB73C"/>
</linearGradient>
<linearGradient id="paint7_linear_3_2" x1="89.1022" y1="2" x2="89.1022" y2="82" gradientUnits="userSpaceOnUse">
<stop stop-color="white"/>
<stop offset="0.9999" stop-color="white"/>
<stop offset="1" stop-color="#FDB73C"/>
</linearGradient>
<linearGradient id="paint8_linear_3_2" x1="89.1022" y1="2" x2="89.1022" y2="82" gradientUnits="userSpaceOnUse">
<stop stop-color="white"/>
<stop offset="0.9999" stop-color="white"/>
<stop offset="1" stop-color="#FDB73C"/>
</linearGradient>
<linearGradient id="paint9_linear_3_2" x1="123.903" y1="11.8275" x2="123.903" y2="85.8031" gradientUnits="userSpaceOnUse">
<stop stop-color="white"/>
<stop offset="1" stop-color="white"/>
</linearGradient>
<linearGradient id="paint10_linear_3_2" x1="123.903" y1="11.8275" x2="123.903" y2="85.8031" gradientUnits="userSpaceOnUse">
<stop stop-color="white"/>
<stop offset="1" stop-color="white"/>
</linearGradient>
<linearGradient id="paint11_linear_3_2" x1="123.903" y1="11.8275" x2="123.903" y2="85.8031" gradientUnits="userSpaceOnUse">
<stop stop-color="white"/>
<stop offset="1" stop-color="white"/>
</linearGradient>
<linearGradient id="paint12_linear_3_2" x1="123.903" y1="11.8275" x2="123.903" y2="85.8031" gradientUnits="userSpaceOnUse">
<stop stop-color="white"/>
<stop offset="1" stop-color="white"/>
</linearGradient>
<linearGradient id="paint13_linear_3_2" x1="123.903" y1="11.8275" x2="123.903" y2="85.8031" gradientUnits="userSpaceOnUse">
<stop stop-color="white"/>
<stop offset="1" stop-color="white"/>
</linearGradient>
<linearGradient id="paint14_linear_3_2" x1="123.903" y1="11.8275" x2="123.903" y2="85.8031" gradientUnits="userSpaceOnUse">
<stop stop-color="white"/>
<stop offset="1" stop-color="white"/>
</linearGradient>
<linearGradient id="paint15_linear_3_2" x1="123.903" y1="11.8275" x2="123.903" y2="85.8031" gradientUnits="userSpaceOnUse">
<stop stop-color="white"/>
<stop offset="1" stop-color="white"/>
</linearGradient>
<linearGradient id="paint16_linear_3_2" x1="123.903" y1="11.8275" x2="123.903" y2="85.8031" gradientUnits="userSpaceOnUse">
<stop stop-color="white"/>
<stop offset="1" stop-color="white"/>
</linearGradient>
<linearGradient id="paint17_linear_3_2" x1="123.903" y1="11.8275" x2="123.903" y2="85.8031" gradientUnits="userSpaceOnUse">
<stop stop-color="white"/>
<stop offset="1" stop-color="white"/>
</linearGradient>
<linearGradient id="paint18_linear_3_2" x1="123.903" y1="11.8275" x2="123.903" y2="85.8031" gradientUnits="userSpaceOnUse">
<stop stop-color="white"/>
<stop offset="1" stop-color="white"/>
</linearGradient>
</defs>
</svg>
