<svg width="125" height="125" viewBox="0 0 125 125" fill="none" xmlns="http://www.w3.org/2000/svg">
<path d="M86.8559 59.4709C86.9522 59.3969 87.0234 59.3099 87.0859 59.2209C88.7147 57.6749 88.6222 55.3549 86.8034 53.8999C84.8834 52.3639 81.7584 52.3639 79.8409 53.8999L74.9234 57.8319L74.2297 57.2789C73.6972 56.8519 72.8322 56.8519 72.2997 57.2789C71.7647 57.7059 71.7647 58.3979 72.2997 58.8249L72.7397 59.1749C72.7072 59.1959 72.6722 59.2139 72.6422 59.2359L66.5334 64.1259L64.4972 60.5449C65.4497 59.6969 65.9809 58.6029 65.9809 57.4359C65.9809 56.3879 65.5522 55.3969 64.7722 54.5909C65.5522 53.7829 65.9809 52.7919 65.9809 51.7439C65.9809 50.6949 65.5522 49.7039 64.7722 48.8969C65.5522 48.0909 65.9809 47.0999 65.9809 46.0509C65.9809 45.7059 65.9334 45.3659 65.8422 45.0349H66.5422H70.4597C70.8709 45.0349 71.2584 44.8879 71.5184 44.6349L74.9622 41.2669H75.2459C76.7759 41.2669 78.0234 40.1399 78.0234 38.7529C78.0234 37.3659 76.7759 36.2389 75.2459 36.2389H65.4922C64.9672 35.3259 64.0772 33.2889 64.7097 30.8439C66.8209 30.6989 68.4872 29.2799 68.4872 27.5529C68.4872 25.7309 66.6359 24.2479 64.3559 24.2479H55.9247C53.6472 24.2479 51.7947 25.7299 51.7947 27.5529C51.7947 29.2799 53.4597 30.6989 55.5709 30.8439C56.1934 33.2709 55.3034 35.3209 54.7859 36.2389H45.0347C43.5034 36.2389 42.2584 37.3659 42.2584 38.7529C42.2584 40.1399 43.5034 41.2669 45.0347 41.2669H45.3184L48.7622 44.6339C49.0222 44.8879 49.4097 45.0349 49.8197 45.0349H53.7372H54.4372C54.3447 45.3659 54.2984 45.7059 54.2984 46.0509C54.2984 47.0999 54.7272 48.0909 55.5072 48.8969C54.7272 49.7029 54.2984 50.6939 54.2984 51.7439C54.2984 52.7939 54.7272 53.7849 55.5072 54.5909C54.7272 55.3969 54.2984 56.3869 54.2984 57.4359C54.2984 58.6029 54.8284 59.6979 55.7822 60.5449L53.8822 63.8849L50.9559 61.5439L51.3972 61.1909C51.9297 60.7639 51.9297 60.0719 51.3972 59.6449C50.8634 59.2179 49.9972 59.2179 49.4647 59.6449L49.0234 59.9979L48.3572 59.4639C47.8234 59.0369 46.9584 59.0369 46.4259 59.4639C45.8922 59.8909 45.8922 60.5829 46.4259 61.0099L47.0934 61.5439L46.4259 62.0779C45.8922 62.5049 45.8922 63.1969 46.4259 63.6229C46.6922 63.8359 47.0422 63.9419 47.3909 63.9419C47.7409 63.9419 48.0922 63.8359 48.3572 63.6229L49.0234 63.0899L52.6722 66.0079L50.8784 69.1589C50.7059 69.4619 50.7159 69.8099 50.9034 70.1059L53.7072 74.5299V82.8399L42.1347 92.0759L40.0059 90.3739C39.4734 89.9469 38.6072 89.9469 38.0747 90.3739C37.5409 90.7999 37.5409 91.4909 38.0747 91.9189L40.2009 93.6209L36.6509 96.4519C36.1172 96.8809 36.1159 97.5709 36.6497 97.9999C36.9159 98.2129 37.2659 98.3189 37.6172 98.3189C37.9659 98.3189 38.3159 98.2129 38.5822 97.9999L42.1347 95.1649L43.6447 96.3749C43.6772 96.3999 43.7134 96.4169 43.7484 96.4389C43.4147 96.9839 43.2447 97.3959 43.2447 97.6639C43.2447 98.4119 44.5272 100.218 47.0559 103.035C47.9059 103.983 48.6172 104.728 49.2159 105.314H46.7959C44.8372 105.314 43.2434 106.591 43.2434 108.158C43.2434 109.725 44.8372 110.999 46.7959 110.999H73.4834C75.4409 110.999 77.0359 109.726 77.0359 108.158C77.0359 106.592 75.4422 105.314 73.4834 105.314H71.0622C71.6622 104.728 72.3722 103.983 73.2234 103.035C75.7509 100.218 77.0359 98.4119 77.0359 97.6639C77.0359 96.9199 75.7522 95.1119 73.2234 92.2939C69.2172 87.8289 68.2759 87.8289 67.6534 87.8289H66.5697V75.6629L86.8559 59.4709ZM54.3947 70.7769H65.8847L64.3459 73.2049H55.9334L54.3947 70.7769ZM67.9472 66.0869L74.5784 60.7809C74.6059 60.7589 74.6272 60.7309 74.6559 60.7049L75.0347 61.0099C75.3009 61.2229 75.6509 61.3289 76.0009 61.3289C76.3497 61.3289 76.6997 61.2229 76.9659 61.0099C77.5009 60.5829 77.5009 59.8909 76.9659 59.4639L76.8572 59.3769L81.7722 55.4449C82.6272 54.7609 84.0172 54.7599 84.8722 55.4449C85.7272 56.1289 85.7259 57.2409 84.8709 57.9239C84.7959 57.9859 84.7334 58.0509 84.6797 58.1219L69.0772 70.5759L69.3747 70.1059C69.5597 69.8099 69.5697 69.4609 69.3997 69.1589L67.7309 66.2259C67.8072 66.1869 67.8797 66.1399 67.9472 66.0869ZM54.5259 27.5539C54.5259 26.9369 55.1522 26.4349 55.9234 26.4349H64.3547C65.1259 26.4349 65.7534 26.9369 65.7534 27.5539C65.7534 28.1709 65.1259 28.6729 64.3547 28.6729H63.6397H56.6397H55.9234C55.1534 28.6719 54.5259 28.1699 54.5259 27.5539ZM58.3572 30.8579H61.9234C61.4797 33.0609 61.9934 34.9659 62.5497 36.2389H57.7309C58.2872 34.9659 58.8009 33.0619 58.3572 30.8579ZM45.1109 38.4249H55.6222H64.6609H75.1697C75.2122 38.4679 75.2897 38.5759 75.2897 38.7529C75.2897 38.9299 75.2122 39.0379 75.1697 39.0809H74.3134H45.9672H45.1109C45.0672 39.0379 44.9922 38.9289 44.9922 38.7529C44.9922 38.5759 45.0672 38.4679 45.1109 38.4249ZM53.7372 42.8479H50.4672L48.8497 41.2659H71.4309L69.8122 42.8479H66.5422H63.7522H56.5297H53.7372ZM58.2609 59.4129C57.4797 58.9349 57.0309 58.2149 57.0309 57.4349C57.0309 56.6559 57.4797 55.9349 58.2609 55.4579C58.5997 55.2519 58.7997 54.9289 58.7997 54.5889C58.7997 54.2469 58.5997 53.9249 58.2609 53.7179C57.4797 53.2419 57.0309 52.5219 57.0309 51.7419C57.0309 50.9619 57.4797 50.2409 58.2609 49.7649C58.5997 49.5569 58.7997 49.2359 58.7997 48.8949C58.7997 48.5539 58.5997 48.2309 58.2609 48.0249C57.4797 47.5489 57.0309 46.8279 57.0309 46.0489C57.0309 45.6949 57.1322 45.3519 57.3134 45.0329H62.9659C63.1484 45.3509 63.2497 45.6939 63.2497 46.0489C63.2497 46.8279 62.8009 47.5489 62.0184 48.0249C61.6797 48.2329 61.4809 48.5539 61.4809 48.8949C61.4809 49.2359 61.6797 49.5569 62.0184 49.7649C62.7997 50.2409 63.2497 50.9619 63.2497 51.7419C63.2497 52.5219 62.8009 53.2419 62.0184 53.7179C61.6797 53.9259 61.4809 54.2469 61.4809 54.5889C61.4809 54.9289 61.6797 55.2519 62.0184 55.4579C62.7997 55.9349 63.2497 56.6559 63.2497 57.4349C63.2497 58.2149 62.8009 58.9349 62.0184 59.4129C61.5122 59.7219 61.3397 60.2699 61.6034 60.7349L66.0747 68.5919H54.2072L58.6784 60.7349C58.9409 60.2709 58.7697 59.7209 58.2609 59.4129ZM56.4409 75.3929H63.0409L56.4409 80.6599V75.3929ZM44.0684 93.6219L53.7084 85.9289V87.8289H52.6247C52.0022 87.8289 51.0609 87.8289 47.0534 92.2939C46.3159 93.1159 45.6872 93.8499 45.1622 94.4989L44.0684 93.6219ZM74.3034 108.158C74.3034 108.519 73.9347 108.812 73.4834 108.812H46.7959C46.3434 108.812 45.9759 108.519 45.9759 108.158C45.9759 107.797 46.3434 107.504 46.7959 107.504H52.6259H67.6534H73.4834C73.9359 107.504 74.3034 107.797 74.3034 108.158ZM52.9172 105.314C52.4722 105.041 51.7147 104.337 50.8584 103.458H69.4209C68.5634 104.338 67.8072 105.041 67.3622 105.314H52.9172ZM74.2547 97.6639C73.9322 98.2859 72.7522 99.7669 71.4309 101.272H48.8459C47.5247 99.7659 46.3459 98.2859 46.0234 97.6639C46.3272 97.0809 47.3947 95.7259 48.6234 94.3129H71.6472C71.6509 94.3129 71.6509 94.3119 71.6559 94.3119C72.8859 95.7269 73.9522 97.0809 74.2547 97.6639ZM69.6672 92.1279H50.6122C51.5684 91.1299 52.4309 90.3159 52.9172 90.0149H55.0759H65.2047H67.3634C67.8472 90.3159 68.7097 91.1299 69.6672 92.1279ZM63.8372 87.8289H56.4409V83.7469L63.8372 77.8449V87.8289Z" fill="white"/>
<path d="M57.1009 18.2989C56.4272 19.2259 55.5059 20.4949 56.8909 22.3309C57.0972 22.6019 57.4572 22.7529 57.8284 22.7529C58.0209 22.7529 58.2159 22.7129 58.3922 22.6279C58.9097 22.3779 59.0759 21.8409 58.7634 21.4279C58.0484 20.4779 58.3634 20.0439 58.9922 19.1779C59.0822 19.0529 59.1747 18.9269 59.2634 18.7969C60.4509 17.0669 59.8109 15.9009 58.7784 14.4429C58.4797 14.0229 57.8134 13.8759 57.2884 14.1139C56.7634 14.3519 56.5797 14.8849 56.8759 15.3049C57.8034 16.6149 57.9709 17.0459 57.3459 17.9559C57.2659 18.0719 57.1822 18.1869 57.1009 18.2989Z" fill="white"/>
<path d="M61.3972 19.3549C60.9322 19.9959 60.2309 20.9629 61.2622 22.3309C61.4684 22.6029 61.8284 22.7539 62.1997 22.7539C62.3922 22.7539 62.5872 22.7139 62.7634 22.6289C63.2809 22.3789 63.4472 21.8419 63.1347 21.4289C62.7722 20.9469 62.8922 20.7819 63.2897 20.2339C63.3509 20.1489 63.4134 20.0619 63.4722 19.9739C64.4222 18.5939 63.7447 17.6389 63.1484 16.7969C62.8522 16.3769 62.1847 16.2289 61.6597 16.4669C61.1334 16.7039 60.9497 17.2379 61.2459 17.6579C61.8422 18.4999 61.8759 18.6659 61.5559 19.1329C61.5059 19.2079 61.4509 19.2819 61.3972 19.3549Z" fill="white"/>
</svg>
